<?xml version="1.0" encoding="UTF-8"?>
<svg version="1.1" xmlns="http://www.w3.org/2000/svg" width="292" height="154">
<path d="M0 0 C1.40572266 0.58394531 1.40572266 0.58394531 2.83984375 1.1796875 C4.20572684 1.74479728 5.57161251 2.30990085 6.9375 2.875 C7.68169189 3.18453613 8.42588379 3.49407227 9.19262695 3.81298828 C13.83870046 5.73449802 18.50439104 7.58583328 23.203125 9.375 C41.10393852 16.23846822 59.44500103 23.2998666 68.08984375 41.703125 C71.21304824 49.58485994 70.45055408 56.48556516 67.390625 64.25390625 C62.1436293 74.61524889 53.63754138 79.92507624 43 83.5625 C35.05687085 86.04815079 26.91925529 87.3326957 18.68945312 88.48071289 C12.61295085 89.37202105 7.19288638 90.81723307 1.48364258 93.09545898 C-4.83735825 95.39756338 -4.83735825 95.39756338 -7.96484375 94.328125 C-8.61582031 93.97234375 -9.26679688 93.6165625 -9.9375 93.25 C-17.2780002 89.73091341 -25.28021307 88.60603391 -33.2578125 87.2890625 C-49.61458145 84.58491925 -63.68993596 80.98022271 -74 67 C-77.82698356 60.49412794 -79.0033504 54.1272906 -77.5390625 46.64453125 C-74.22159945 34.05768613 -66.62937343 26.69712027 -55.7578125 20.00390625 C-46.15906013 14.49649133 -35.9071936 10.7168681 -25.53271484 6.94726562 C-22.09332908 5.66089424 -18.70458594 4.25886174 -15.31762695 2.84082031 C-12.89480898 1.96183737 -10.53569746 1.44303903 -8 1 C-8.7782006 6.71530932 -13.76992746 9.5823255 -18 13 C-23.28888889 17 -23.28888889 17 -26 17 C-26.0825 17.86625 -26.165 18.7325 -26.25 19.625 C-27.82447922 26.7101565 -32.54387315 30.67801188 -38 35 C-37.8040625 35.59296875 -37.608125 36.1859375 -37.40625 36.796875 C-37 39 -37 39 -38.5 42.25 C-40.3992237 46.38412414 -40.50407246 49.69288342 -39 54 C-35.74551766 59.45604392 -30.50018272 63.06432176 -25.578125 66.91796875 C-18.41084817 72.70608776 -12.89165179 79.13462351 -7.91772461 86.8347168 C-6.99058022 88.25388442 -6.00044915 89.63152093 -5 91 C-4.34 91 -3.68 91 -3 91 C-1.56237408 89.15291947 -1.56237408 89.15291947 -0.0625 86.75 C6.57558376 77.04607962 14.54603211 69.00561296 23.67236328 61.65258789 C27.52822526 58.53006766 30.41735578 56.01684537 31.8125 51.1875 C32.22269579 44.21417158 28.96892805 35.3871835 24.30859375 30.0703125 C23.06254285 28.77483578 21.81253966 27.48314884 20.55859375 26.1953125 C19 24 19 24 18.640625 20.9921875 C18.27455216 17.79321468 18.27455216 17.79321468 15.48828125 15.875 C14.44027344 15.25625 13.39226562 14.6375 12.3125 14 C7.53082187 11.01358839 3.57694041 8.37181605 0 4 C0 2.68 0 1.36 0 0 Z M-60 36 C-61.32 37.32 -62.64 38.64 -64 40 C-63.67 40.99 -63.34 41.98 -63 43 C-61.68 41.35 -60.36 39.7 -59 38 C-59.33 37.34 -59.66 36.68 -60 36 Z M53 38 C54 40 54 40 54 40 Z M-51 44 C-51.33 45.32 -51.66 46.64 -52 48 C-51.34 46.68 -50.68 45.36 -50 44 C-50.33 44 -50.66 44 -51 44 Z M-66 45 C-65 49 -65 49 -65 49 Z M57 45 C58 47 58 47 58 47 Z M44 54 C45 57 45 57 45 57 Z M57 55 C58 59 58 59 58 59 Z M-66 57 C-65 59 -65 59 -65 59 Z M43 58 C44 60 44 60 44 60 Z M56 59 C57 61 57 61 57 61 Z M41 61 C40.67 61.66 40.34 62.32 40 63 C40.66 63 41.32 63 42 63 C41.67 62.34 41.34 61.68 41 61 Z M55 61 C56 63 56 63 56 63 Z M39 63 C38.67 63.66 38.34 64.32 38 65 C38.66 65 39.32 65 40 65 C39.67 64.34 39.34 63.68 39 63 Z M53 64 C52.67 64.66 52.34 65.32 52 66 C52.66 66 53.32 66 54 66 C53.67 65.34 53.34 64.68 53 64 Z " fill="#5885D4" transform="translate(145,24)"/>
<path d="M0 0 C4.63557795 1.67633446 7.55705725 4.61820408 11.05078125 8.0234375 C11.75533447 8.69656982 12.4598877 9.36970215 13.18579102 10.06323242 C28.24708658 24.74481682 28.24708658 24.74481682 28.48828125 34.7734375 C28.37542907 42.05674383 27.03867842 46.29036815 21.859375 51.4609375 C19.33996289 53.74380272 16.77065007 55.95212696 14.17578125 58.1484375 C9.05746897 63.02868875 4.10495086 68.25468308 0.17578125 74.1484375 C-3.3713252 72.70016478 -4.98639112 70.92662397 -7.19921875 67.8359375 C-9.29838542 65.02656027 -11.26043357 62.57856981 -14.01171875 60.3984375 C-16.82421875 58.1484375 -16.82421875 58.1484375 -18.76171875 55.7109375 C-20.57755289 53.45490114 -22.20494492 51.98784709 -24.44921875 50.2109375 C-28.44140762 46.8342467 -29.56599862 44.0318956 -30.03515625 38.79296875 C-30.40682099 29.34410758 -26.91923114 23.62932529 -20.82421875 16.7734375 C-20.2511499 16.12439453 -19.67808105 15.47535156 -19.08764648 14.80664062 C-6.04207106 0.3175639 -6.04207106 0.3175639 0 0 Z M-0.82421875 65.1484375 C0.17578125 67.1484375 0.17578125 67.1484375 0.17578125 67.1484375 Z " fill="#070F1B" transform="translate(141.82421875,36.8515625)"/>
<path d="M0 0 C0.93714844 0.38929687 1.87429687 0.77859375 2.83984375 1.1796875 C4.20572684 1.74479728 5.57161251 2.30990085 6.9375 2.875 C8.05378784 3.3393042 8.05378784 3.3393042 9.19262695 3.81298828 C13.83870046 5.73449802 18.50439104 7.58583328 23.203125 9.375 C41.10393852 16.23846822 59.44500103 23.2998666 68.08984375 41.703125 C71.21236308 49.58313087 70.44364335 56.47117998 67.40234375 64.2421875 C64.16265513 70.61327431 59.86158072 75.69689551 53 78 C53 77.01 53 76.02 53 75 C54.98 74.505 54.98 74.505 57 74 C57.33 72.02 57.66 70.04 58 68 C55.05737515 68.63056247 52.65361642 69.59026628 50 71 C47.34638358 72.40973372 44.94262485 73.36943753 42 74 C42.33 73.34 42.66 72.68 43 72 C43.66 72 44.32 72 45 72 C46.25664978 69.09399739 47 67.20395416 47 64 C44.03 64.495 44.03 64.495 41 65 C40.855625 65.94875 40.71125 66.8975 40.5625 67.875 C39 71 39 71 37.00390625 71.73828125 C35.40695187 72.03984078 33.80492586 72.31559532 32.19921875 72.56640625 C29.54202138 73.09029419 27.94751792 74.13715677 26 76 C25.34 75.67 24.68 75.34 24 75 C25.76944505 73.53998252 27.54060571 72.08204407 29.3125 70.625 C30.29863281 69.81289062 31.28476563 69.00078125 32.30078125 68.1640625 C35 66 35 66 38 64 C38.99 64.495 38.99 64.495 40 65 C40 64.34 40 63.68 40 63 C40.33 62.67 40.66 62.34 41 62 C40.67 61.34 40.34 60.68 40 60 C40.33 59.01 40.66 58.02 41 57 C41.14328384 55.17037564 41.22040343 53.33498763 41.25 51.5 C41.28867188 50.06140625 41.28867188 50.06140625 41.328125 48.59375 C41.19982021 45.98946687 41.19982021 45.98946687 39.734375 44.15625 C37.79270969 42.63019987 37.79270969 42.63019987 34 43 C34.01160156 43.68707031 34.02320313 44.37414062 34.03515625 45.08203125 C34.04417969 45.98308594 34.05320313 46.88414063 34.0625 47.8125 C34.07410156 48.70582031 34.08570313 49.59914062 34.09765625 50.51953125 C34 53 34 53 33 56 C32.34 56 31.68 56 31 56 C31.20625 54.824375 31.4125 53.64875 31.625 52.4375 C32.52694317 45.24736152 29.4440976 38.22720677 26 32 C24.24663472 29.99962483 22.4140756 28.10094251 20.55859375 26.1953125 C19 24 19 24 18.640625 20.9921875 C18.27455216 17.79321468 18.27455216 17.79321468 15.48828125 15.875 C14.44027344 15.25625 13.39226562 14.6375 12.3125 14 C7.53082187 11.01358839 3.57694041 8.37181605 0 4 C0 2.68 0 1.36 0 0 Z M53 38 C54 40 54 40 54 40 Z M57 45 C58 47 58 47 58 47 Z M44 54 C45 57 45 57 45 57 Z M57 55 C58 59 58 59 58 59 Z M43 58 C44 60 44 60 44 60 Z M56 59 C57 61 57 61 57 61 Z M55 61 C56 63 56 63 56 63 Z M53 64 C52.67 64.66 52.34 65.32 52 66 C52.66 66 53.32 66 54 66 C53.67 65.34 53.34 64.68 53 64 Z " fill="#4366A8" transform="translate(145,24)"/>
<path d="M0 0 C-0.7782006 5.71530932 -5.76992746 8.5823255 -10 12 C-15.28888889 16 -15.28888889 16 -18 16 C-18.0825 16.86625 -18.165 17.7325 -18.25 18.625 C-19.82447922 25.7101565 -24.54387315 29.67801188 -30 34 C-29.8040625 34.59554687 -29.608125 35.19109375 -29.40625 35.8046875 C-28.86085826 38.75190056 -30.10636027 40.30744056 -31.36328125 42.91796875 C-32.58042553 46.89795587 -31.67404805 50.96383275 -31 55 C-32.94734511 53.37721241 -33.90721805 52.47755414 -34.3984375 49.94921875 C-34.34585861 44.87535549 -33.73210649 41.43967305 -31 37 C-35.08963819 39.28538605 -38.46362104 41.95706926 -42 45 C-42.495 44.505 -42.495 44.505 -43 44 C-43.44057584 50.87787844 -43.69485195 55.52267273 -39 61 C-38.4225 61.825 -37.845 62.65 -37.25 63.5 C-34.2123371 66.875181 -30.69753429 69.38839204 -27 72 C-27.99 72.495 -27.99 72.495 -29 73 C-43.44925575 63.1014885 -43.44925575 63.1014885 -47 56 C-47.0716735 53.44842345 -47.09308442 50.92527029 -47.0625 48.375 C-47.05798828 47.66859375 -47.05347656 46.9621875 -47.04882812 46.234375 C-47.03703875 44.48954725 -47.01910324 42.744763 -47 41 C-46.01 40.505 -46.01 40.505 -45 40 C-45 39.34 -45 38.68 -45 38 C-46.97536745 38.34786708 -46.97536745 38.34786708 -49 39 C-49.33 39.66 -49.66 40.32 -50 41 C-50.99 41 -51.98 41 -53 41 C-53.69277882 45.58965967 -54.12537595 50.10775396 -54.25 54.75 C-54.27578125 55.65234375 -54.3015625 56.5546875 -54.328125 57.484375 C-53.9396979 60.46231608 -52.88385939 61.71953863 -51 64 C-51 64.66 -51 65.32 -51 66 C-50.1028125 66.0928125 -50.1028125 66.0928125 -49.1875 66.1875 C-46.12856542 67.3236757 -45.44958901 69.17330142 -44 72 C-46.64 72 -49.28 72 -52 72 C-51.67 72.99 -51.34 73.98 -51 75 C-50.67 75.99 -50.34 76.98 -50 78 C-49.34 78 -48.68 78 -48 78 C-48 78.66 -48 79.32 -48 80 C-56.40048868 77.66449296 -62.73448181 71.76112458 -67.0625 64.25 C-70.58861562 57.47383476 -70.80462807 50.4462359 -68.875 43.125 C-64.47389325 29.73914537 -54.38020202 22.39387059 -42.31396484 16.00854492 C-34.33505253 11.98744996 -25.92561116 9.00687862 -17.54443359 5.94726562 C-1.56958763 0 -1.56958763 0 0 0 Z M-52 35 C-53.32 36.32 -54.64 37.64 -56 39 C-55.67 39.99 -55.34 40.98 -55 42 C-53.68 40.35 -52.36 38.7 -51 37 C-51.33 36.34 -51.66 35.68 -52 35 Z M-58 44 C-57 48 -57 48 -57 48 Z M-58 56 C-57 58 -57 58 -57 58 Z " fill="#3F62A4" transform="translate(137,25)"/>
<path d="M0 0 C2.56269497 1.04109483 4.02610343 2.02610343 6 4 C6.30078125 6.35546875 6.30078125 6.35546875 6.3125 9.1875 C6.32925781 10.10917969 6.34601563 11.03085938 6.36328125 11.98046875 C5.67360275 17.71295776 4.02859247 21.42067225 -0.35546875 25.08984375 C-1.62148668 26.05411648 -2.89917578 27.0032388 -4.1875 27.9375 C-4.84169922 28.43056641 -5.49589844 28.92363281 -6.16992188 29.43164062 C-7.76991524 30.63455534 -9.38361336 31.819205 -11 33 C-10.27425781 32.53980469 -9.54851562 32.07960937 -8.80078125 31.60546875 C-6.2550965 30.14622687 -3.9745599 29.18605609 -1.1875 28.3125 C-0.39730469 28.06113281 0.39289063 27.80976562 1.20703125 27.55078125 C1.79871094 27.36902344 2.39039063 27.18726562 3 27 C3 26.34 3 25.68 3 25 C3.66 25 4.32 25 5 25 C5 24.34 5 23.68 5 23 C8 21 8 21 10.1875 21.375 C10.785625 21.58125 11.38375 21.7875 12 22 C11.37240135 24.92879371 10.41377341 27.36095629 9 30 C9.53625 29.731875 10.0725 29.46375 10.625 29.1875 C11.40875 28.795625 12.1925 28.40375 13 28 C13.99 27.443125 14.98 26.88625 16 26.3125 C19 25 19 25 21.375 25.3125 C21.91125 25.539375 22.4475 25.76625 23 26 C22.67 27.98 22.34 29.96 22 32 C19.525 32.495 19.525 32.495 17 33 C16.938125 33.78375 16.87625 34.5675 16.8125 35.375 C16.544375 36.24125 16.27625 37.1075 16 38 C6.60001172 42.62565329 -4.88103943 43.02379211 -15 41 C-17 40.66666667 -19 40.33333333 -21 40 C-20.67 38.68 -20.34 37.36 -20 36 C-23.87797662 35.56613908 -23.87797662 35.56613908 -25.75 37.5 C-26.1625 37.995 -26.575 38.49 -27 39 C-27.73828125 36.76953125 -27.73828125 36.76953125 -28 34 C-26.48046875 31.82421875 -26.48046875 31.82421875 -24.1875 29.6875 C-23.36378906 28.91535156 -22.54007813 28.14320312 -21.69140625 27.34765625 C-18.26668749 24.36034715 -14.76214521 21.50222631 -11.1640625 18.7265625 C-9.00697215 17.09349038 -9.00697215 17.09349038 -7.3984375 15.2734375 C-6 14 -6 14 -3 14 C-2.95101562 13.07316406 -2.90203125 12.14632812 -2.8515625 11.19140625 C-2.77679688 9.99386719 -2.70203125 8.79632813 -2.625 7.5625 C-2.55539063 6.36753906 -2.48578125 5.17257813 -2.4140625 3.94140625 C-2.27742188 2.97074219 -2.14078125 2.00007813 -2 1 C-1.34 0.67 -0.68 0.34 0 0 Z M-31 41 C-30.34 41 -29.68 41 -29 41 C-27.375 43 -27.375 43 -26 45 C-26.99 45 -27.98 45 -29 45 C-29 45.66 -29 46.32 -29 47 C-30.32 47 -31.64 47 -33 47 C-32.125 42.125 -32.125 42.125 -31 41 Z " fill="#7BA9EF" transform="translate(181,66)"/>
<path d="M0 0 C0.4640625 1.2375 0.4640625 1.2375 0.9375 2.5 C1.78638336 5.24770098 1.78638336 5.24770098 4.625 6.3125 C5.40875 6.539375 6.1925 6.76625 7 7 C6.98839844 7.71027344 6.97679687 8.42054687 6.96484375 9.15234375 C6.95582031 10.07144531 6.94679687 10.99054688 6.9375 11.9375 C6.92589844 12.85402344 6.91429687 13.77054688 6.90234375 14.71484375 C6.74050951 16.96593327 6.74050951 16.96593327 8 18 C8.1584864 21.56594397 7.91467451 24.56997057 7 28 C7 29.32 7 30.64 7 32 C6 35 6 35 4 36 C2.9935725 37.66279327 1.99414593 39.32983484 1 41 C-0.6875 42.8125 -0.6875 42.8125 -2 44 C-4.4375 43.1875 -4.4375 43.1875 -7 42 C-7.495 40.515 -7.495 40.515 -8 39 C-8.5775 38.71125 -9.155 38.4225 -9.75 38.125 C-14.37663281 35.81168359 -17.67895831 31.99179856 -19.56640625 27.171875 C-20.49662485 22.51240165 -19.93387967 17.62726843 -19 13 C-18.34 12.34 -17.68 11.68 -17 11 C-16.773125 10.0925 -16.54625 9.185 -16.3125 8.25 C-14.57268767 3.94189329 -11.87293555 1.50842028 -8 -1 C-4.59035054 -2.15139282 -2.97489094 -2.18158669 0 0 Z " fill="#365685" transform="translate(144,54)"/>
<path d="M0 0 C5.57965039 1.58865046 10.28347556 3.52776849 15.078125 6.81640625 C17.01147652 8.09544869 17.01147652 8.09544869 19.4140625 8.8828125 C22.54908705 10.23721887 24.60258586 12.01764309 27.125 14.3125 C27.97320312 15.07175781 28.82140625 15.83101562 29.6953125 16.61328125 C33.56633453 20.62208542 35.42386415 23.68497833 35.375 29.3125 C35.24908556 34.47499216 34.12042994 38.31738388 32 43 C32.99 43.495 32.99 43.495 34 44 C34.433125 43.071875 34.433125 43.071875 34.875 42.125 C36 40 36 40 38 38 C38.67940467 35.57284794 38.67940467 35.57284794 39.125 32.875 C39.29257813 31.96492188 39.46015625 31.05484375 39.6328125 30.1171875 C39.81457031 29.06917969 39.81457031 29.06917969 40 28 C40.33 28 40.66 28 41 28 C41.495 31.465 41.495 31.465 42 35 C42.99 35 43.98 35 45 35 C44.47486635 46.11250564 44.47486635 46.11250564 40.93359375 50.64453125 C34.92195946 56 34.92195946 56 32 56 C32 55.01 32 54.02 32 53 C33.98 52.505 33.98 52.505 36 52 C36.33 50.02 36.66 48.04 37 46 C34.05737515 46.63056247 31.65361642 47.59026628 29 49 C26.34638358 50.40973372 23.94262485 51.36943753 21 52 C21.33 51.34 21.66 50.68 22 50 C22.66 50 23.32 50 24 50 C25.25664978 47.09399739 26 45.20395416 26 42 C23.03 42.495 23.03 42.495 20 43 C19.7834375 44.423125 19.7834375 44.423125 19.5625 45.875 C18 49 18 49 16.00390625 49.73828125 C14.40695187 50.03984078 12.80492586 50.31559532 11.19921875 50.56640625 C8.54202138 51.09029419 6.94751792 52.13715677 5 54 C4.34 53.67 3.68 53.34 3 53 C4.76944505 51.53998252 6.54060571 50.08204407 8.3125 48.625 C9.29863281 47.81289062 10.28476563 47.00078125 11.30078125 46.1640625 C14 44 14 44 17 42 C17.66 42.33 18.32 42.66 19 43 C19 42.34 19 41.68 19 41 C19.33 40.67 19.66 40.34 20 40 C19.67 39.34 19.34 38.68 19 38 C19.33 37.01 19.66 36.02 20 35 C20.14328384 33.17037564 20.22040343 31.33498763 20.25 29.5 C20.27578125 28.5409375 20.3015625 27.581875 20.328125 26.59375 C20.19982021 23.98946687 20.19982021 23.98946687 18.734375 22.15625 C16.79270969 20.63019987 16.79270969 20.63019987 13 21 C13.01160156 21.68707031 13.02320313 22.37414062 13.03515625 23.08203125 C13.04869141 24.43361328 13.04869141 24.43361328 13.0625 25.8125 C13.07410156 26.70582031 13.08570313 27.59914063 13.09765625 28.51953125 C13 31 13 31 12 34 C11.34 34 10.68 34 10 34 C10.20625 32.824375 10.4125 31.64875 10.625 30.4375 C11.37441134 24.46331949 9.34793288 19.42959478 7 14 C6.731875 13.34 6.46375 12.68 6.1875 12 C4.9792693 9.75042586 4.9792693 9.75042586 2.375 7.5625 C0 5 0 5 -0.3125 2.1875 C-0.209375 1.465625 -0.10625 0.74375 0 0 Z M23 32 C24 35 24 35 24 35 Z M22 36 C23 38 23 38 23 38 Z " fill="#74A0E0" transform="translate(166,46)"/>
<path d="M0 0 C0.66 0.33 1.32 0.66 2 1 C1.01 1.33 0.02 1.66 -1 2 C-1.0825 2.86625 -1.165 3.7325 -1.25 4.625 C-2.82447922 11.7101565 -7.54387315 15.67801188 -13 20 C-12.70609375 20.89332031 -12.70609375 20.89332031 -12.40625 21.8046875 C-11.86085826 24.75190056 -13.10636027 26.30744056 -14.36328125 28.91796875 C-15.58042553 32.89795587 -14.67404805 36.96383275 -14 41 C-15.94734511 39.37721241 -16.90721805 38.47755414 -17.3984375 35.94921875 C-17.34585861 30.87535549 -16.73210649 27.43967305 -14 23 C-18.08963819 25.28538605 -21.46362104 27.95706926 -25 31 C-25.33 30.67 -25.66 30.34 -26 30 C-26.44057584 36.87787844 -26.69485195 41.52267273 -22 47 C-21.4225 47.825 -20.845 48.65 -20.25 49.5 C-17.2123371 52.875181 -13.69753429 55.38839204 -10 58 C-10.99 58.495 -10.99 58.495 -12 59 C-26.44925575 49.1014885 -26.44925575 49.1014885 -30 42 C-30.0716735 39.44842345 -30.09308442 36.92527029 -30.0625 34.375 C-30.05798828 33.66859375 -30.05347656 32.9621875 -30.04882812 32.234375 C-30.03703875 30.48954725 -30.01910324 28.744763 -30 27 C-29.34 26.67 -28.68 26.34 -28 26 C-28 25.34 -28 24.68 -28 24 C-29.97536745 24.34786708 -29.97536745 24.34786708 -32 25 C-32.33 25.66 -32.66 26.32 -33 27 C-33.99 27 -34.98 27 -36 27 C-36.69277882 31.58965967 -37.12537595 36.10775396 -37.25 40.75 C-37.27578125 41.65234375 -37.3015625 42.5546875 -37.328125 43.484375 C-36.9396979 46.46231608 -35.88385939 47.71953863 -34 50 C-34 50.66 -34 51.32 -34 52 C-33.1028125 52.0928125 -33.1028125 52.0928125 -32.1875 52.1875 C-29.12856542 53.3236757 -28.44958901 55.17330142 -27 58 C-32.80239582 56.98976144 -36.59404414 52.67328429 -40.40625 48.4375 C-44.21189912 43.0008584 -43.89435961 36.33896987 -43 30 C-37.85620579 15.97974675 -20.21056289 9.41761718 -7.75 3.4375 C-7.01088379 3.07865723 -6.27176758 2.71981445 -5.51025391 2.35009766 C-3.70223458 1.50252255 -1.85356908 0.7426972 0 0 Z M-35 21 C-36.32 22.32 -37.64 23.64 -39 25 C-38.67 25.99 -38.34 26.98 -38 28 C-36.68 26.35 -35.36 24.7 -34 23 C-34.33 22.34 -34.66 21.68 -35 21 Z M-41 30 C-40 34 -40 34 -40 34 Z M-41 42 C-40 44 -40 44 -40 44 Z " fill="#7098D8" transform="translate(120,39)"/>
<path d="M0 0 C3.37462715 0.54723683 5.08235 1.0549 8 3 C9.01351664 4.65848177 10.01120795 6.32665961 11 8 C11.845625 8.9075 12.69125 9.815 13.5625 10.75 C18.50070882 16.56578207 18.49354632 24.70961574 18 32 C17.5 35.0625 17.5 35.0625 17 37 C16.34 37 15.68 37 15 37 C14.90912109 37.85851562 14.90912109 37.85851562 14.81640625 38.734375 C13.6520164 41.96569611 11.64644288 43.19257503 8.9375 45.25 C8.01839844 45.95640625 7.09929687 46.6628125 6.15234375 47.390625 C5.44207031 47.92171875 4.73179687 48.4528125 4 49 C4 48.01 4 47.02 4 46 C4.66 46 5.32 46 6 46 C6.76223883 42.27349908 7.08088182 39.64797614 6 36 C6.33 35.67 6.66 35.34 7 35 C7.14636054 31.63370749 7.07193479 29.21580438 6 26 C6.16011121 23.29876894 6.60440608 20.68124769 7 18 C6.21625 17.896875 5.4325 17.79375 4.625 17.6875 C2 17 2 17 0 14 C0 13.01 0 12.02 0 11 C-2.47260564 10.08422013 -3.79798323 9.94683769 -6.375 10.625 C-10.97685067 13.03549321 -14.33319053 15.34885273 -16.3125 20.25 C-16.539375 21.1575 -16.76625 22.065 -17 23 C-17.33 23.33 -17.66 23.66 -18 24 C-19.1534397 31.36919806 -19.81876365 37.43172652 -16 44 C-19.16115776 42.63016497 -19.9927092 42.0109362 -22 39 C-22.66796875 36.5546875 -22.66796875 36.5546875 -23.1875 33.875 C-23.45626953 32.54082031 -23.45626953 32.54082031 -23.73046875 31.1796875 C-23.81941406 30.46039063 -23.90835938 29.74109375 -24 29 C-23.67 28.67 -23.34 28.34 -23 28 C-22.80522261 26.37585622 -22.61940542 24.75063577 -22.4375 23.125 C-21.2424285 16.083271 -17.55748242 11.34263285 -13 6 C-12.505 5.401875 -12.01 4.80375 -11.5 4.1875 C-9.5153462 2.61631574 -8.4216484 2.77712313 -5.9375 3 C-4.638125 3 -3.33875 3 -2 3 C-1.34 2.01 -0.68 1.02 0 0 Z " fill="#2D4871" transform="translate(144,43)"/>
<path d="M0 0 C1.32 0.33 2.64 0.66 4 1 C4 1.99 4 2.98 4 4 C3.01 4 2.02 4 1 4 C1.165 4.804375 1.33 5.60875 1.5 6.4375 C1.91162746 9.37034563 1.90297071 11.48368371 1.6875 14.375 C1.6720243 18.99449776 3.02139053 21.50821474 5.94140625 25.0234375 C9.18863161 28.14126678 12.84015451 30.5970948 16.609375 33.04296875 C19.25306082 35.20716254 20.03908259 36.76528382 21 40 C21.33 39.01 21.66 38.02 22 37 C22.99 37.99 23.98 38.98 25 40 C24.2575 40.433125 23.515 40.86625 22.75 41.3125 C20.03331818 42.91237032 20.03331818 42.91237032 17.8125 44.6875 C16 46 16 46 14 46 C14 45.34 14 44.68 14 44 C12.98679687 44.01740234 12.98679687 44.01740234 11.953125 44.03515625 C11.06109375 44.04417969 10.1690625 44.05320313 9.25 44.0625 C8.36828125 44.07410156 7.4865625 44.08570313 6.578125 44.09765625 C4.2181162 44.00826198 2.25501476 43.66912821 0 43 C0 42.34 0 41.68 0 41 C-0.66 41 -1.32 41 -2 41 C-2.33 40.34 -2.66 39.68 -3 39 C-3.66 38.67 -4.32 38.34 -5 38 C-4.67 37.34 -4.34 36.68 -4 36 C-4.66 35.67 -5.32 35.34 -6 35 C-2.846632 34.29925156 -0.27275026 34 3 34 C0.72584713 30.62911733 0.72584713 30.62911733 -3 29 C-7.17065618 24.471859 -7.48894135 20.82850495 -7.2734375 14.76953125 C-6.90206122 11.00802008 -6.09171781 7.61631525 -5 4 C-4.01 4 -3.02 4 -2 4 C-1.34 2.68 -0.68 1.36 0 0 Z " fill="#8DB5EE" transform="translate(89,62)"/>
<path d="M0 0 C2.97302786 2.18990342 5.5604631 4.72420281 8.1875 7.3125 C8.89841797 7.98990234 9.60933594 8.66730469 10.34179688 9.36523438 C16.18165514 14.98534256 20.78101052 19.52823491 21.1953125 27.98828125 C21.18214778 29.42981792 21.15848651 30.87129219 21.125 32.3125 C21.11597656 33.05306641 21.10695312 33.79363281 21.09765625 34.55664062 C21.07424213 36.37123467 21.03837615 38.18566071 21 40 C20.34 40 19.68 40 19 40 C18.67 40.99 18.34 41.98 18 43 C16.4375 44.6875 16.4375 44.6875 15 46 C14.01 45.505 14.01 45.505 13 45 C13.33 44.01 13.66 43.02 14 42 C14.66 42 15.32 42 16 42 C16.85315535 27.20237245 16.85315535 27.20237245 10.375 14.625 C9.74335938 13.99851562 9.11171875 13.37203125 8.4609375 12.7265625 C7 11 7 11 7 8 C4.36095629 6.58622659 1.92879371 5.62759865 -1 5 C-1.66 6.32 -2.32 7.64 -3 9 C-4.155 8.79375 -5.31 8.5875 -6.5 8.375 C-9.75229525 8.35189311 -10.76586263 8.78616835 -13.20703125 11.015625 C-18.94654579 18.12878959 -22.12323018 23.94004516 -23 33 C-23.20238281 33.64195313 -23.40476562 34.28390625 -23.61328125 34.9453125 C-24.11695147 37.62137853 -23.49557961 39.21202346 -22.5625 41.75 C-22.27503906 42.54921875 -21.98757812 43.3484375 -21.69140625 44.171875 C-21.46324219 44.77515625 -21.23507813 45.3784375 -21 46 C-24.35298369 44.39971233 -26.26034918 43.39231911 -28 40 C-28.98367999 33.49973631 -27.59081587 26.98977613 -25 21 C-24.34 20.67 -23.68 20.34 -23 20 C-22.566875 18.081875 -22.566875 18.081875 -22.125 16.125 C-19.94694631 8.95701378 -13.63698523 4.54203126 -8 0 C-4.8786732 -1.5606634 -3.34712804 -1.00761294 0 0 Z " fill="#142133" transform="translate(145,38)"/>
<path d="M0 0 C1.42505859 0.02320313 1.42505859 0.02320313 2.87890625 0.046875 C5.4375 0.25 5.4375 0.25 8.4375 1.25 C8.42589844 1.96027344 8.41429687 2.67054687 8.40234375 3.40234375 C8.39332031 4.32144531 8.38429687 5.24054688 8.375 6.1875 C8.36339844 7.10402344 8.35179687 8.02054687 8.33984375 8.96484375 C8.17800951 11.21593327 8.17800951 11.21593327 9.4375 12.25 C9.875 15.0625 9.875 15.0625 9.4375 18.25 C6.86268212 20.82481788 4.92969138 22.11700612 1.24609375 22.4453125 C-2.67502131 22.21973228 -5.83139188 21.47102352 -9.0625 19.1875 C-11.78517605 15.98835564 -12.5182749 14.27396532 -12.734375 10.17578125 C-12.39201312 6.33977199 -10.54544398 4.15248175 -7.796875 1.62890625 C-5.00280606 -0.09540552 -3.25865562 -0.0886709 0 0 Z " fill="#476FA3" transform="translate(142.5625,59.75)"/>
<path d="M0 0 C1.0415625 0.43570312 2.083125 0.87140625 3.15625 1.3203125 C4.60390311 1.92250897 6.05184185 2.52401905 7.5 3.125 C8.63912842 3.59824707 8.63912842 3.59824707 9.80126953 4.08105469 C15.77703975 6.54348201 21.80377538 8.83328423 27.90820312 10.95751953 C31.3040509 12.18068921 33.62152053 13.28067923 36 16 C37.97620986 17.04622875 39.9737129 18.05439935 42 19 C42 19.66 42 20.32 42 21 C43.65 21.33 45.3 21.66 47 22 C47 22.66 47 23.32 47 24 C47.99 24 48.98 24 50 24 C50.495 25.485 50.495 25.485 51 27 C39.98485131 28.35803203 33.05210989 25.15562658 23.74755859 19.94384766 C21.58018469 18.77325985 19.35124194 17.84420929 17.0625 16.9375 C12.10440481 14.80039 8.04847045 11.52983275 4 8 C3.25363281 7.3503125 2.50726563 6.700625 1.73828125 6.03125 C0 4 0 4 0 0 Z " fill="#6D95DE" transform="translate(145,24)"/>
<path d="M0 0 C0.66 0 1.32 0 2 0 C1.45987807 3.88887793 0.35992667 5.92183478 -2 9 C-2 9.99 -2 10.98 -2 12 C-1.34 11.67 -0.68 11.34 0 11 C0.25523438 12.28583984 0.25523438 12.28583984 0.515625 13.59765625 C2.90183896 24.85601678 5.94366393 30.76811999 15 38 C13 39 13 39 10 40 C10.33 40.66 10.66 41.32 11 42 C11.33 42.99 11.66 43.98 12 45 C12.66 45 13.32 45 14 45 C14 45.66 14 46.32 14 47 C5.59951132 44.66449296 -0.73448181 38.76112458 -5.0625 31.25 C-9.231569 23.23826598 -8.34214233 15.48054568 -6.046875 7.0390625 C-5 5 -5 5 -2.890625 4.2109375 C-2.26671875 4.14132813 -1.6428125 4.07171875 -1 4 C-0.67 2.68 -0.34 1.36 0 0 Z " fill="#7AA3E6" transform="translate(75,58)"/>
<path d="M0 0 C0.8971875 0.309375 0.8971875 0.309375 1.8125 0.625 C1.18490135 3.55379371 0.22627341 5.98595629 -1.1875 8.625 C-0.65125 8.356875 -0.115 8.08875 0.4375 7.8125 C1.22125 7.420625 2.005 7.02875 2.8125 6.625 C3.8025 6.068125 4.7925 5.51125 5.8125 4.9375 C8.8125 3.625 8.8125 3.625 11.1875 3.9375 C11.72375 4.164375 12.26 4.39125 12.8125 4.625 C12.4825 6.605 12.1525 8.585 11.8125 10.625 C10.1625 10.955 8.5125 11.285 6.8125 11.625 C6.7196875 12.800625 6.7196875 12.800625 6.625 14 C5.8125 16.625 5.8125 16.625 3.6875 17.875 C0.37622799 18.73881009 -2.77970716 19.2784448 -6.1875 19.625 C-6.88746094 19.70234375 -7.58742187 19.7796875 -8.30859375 19.859375 C-10.4375 20 -10.4375 20 -14.1875 19.625 C-15.9375 17.1875 -15.9375 17.1875 -17.1875 14.625 C-19.27283633 13.74677688 -19.27283633 13.74677688 -21.1875 13.625 C-17.138309 8.79209462 -13.22030791 7.2416348 -7.1875 5.625 C-7.1875 4.965 -7.1875 4.305 -7.1875 3.625 C-6.5275 3.625 -5.8675 3.625 -5.1875 3.625 C-5.1875 2.965 -5.1875 2.305 -5.1875 1.625 C-2.1875 -0.375 -2.1875 -0.375 0 0 Z " fill="#8CB5F4" transform="translate(191.1875,87.375)"/>
<path d="M0 0 C0.99 0 1.98 0 3 0 C2.67 0.804375 2.34 1.60875 2 2.4375 C0.40968017 8.1030144 -0.40760815 12.4831545 2.56640625 17.80078125 C4.29969526 20.27640818 6.08640469 22.66170369 8 25 C6.68 27.31 5.36 29.62 4 32 C4.99 32 5.98 32 7 32 C7.33 30.35 7.66 28.7 8 27 C11.4375 27.8125 11.4375 27.8125 15 29 C15.33 29.99 15.66 30.98 16 32 C15.21625 32.268125 14.4325 32.53625 13.625 32.8125 C10.71885077 33.84814432 10.71885077 33.84814432 9 37 C1.32195661 31.63282404 -5.71353865 26.57292271 -10 18 C-10.3445378 13.4033616 -10.20979336 9.45175204 -7.18359375 5.8203125 C-5.18518897 4.09717993 -3.15589083 2.51934548 -1 1 C-0.67 0.67 -0.34 0.34 0 0 Z " fill="#B5D0F3" transform="translate(103,62)"/>
<path d="M0 0 C-0.70253645 4.91775512 -3.87235693 7.0400034 -7.49609375 10.125 C-10.32789688 12.24553901 -12.99172579 13.58116619 -16.26953125 14.86328125 C-20.7517702 16.72927772 -25.0253665 19.02723068 -29.32836914 21.27148438 C-32.87784372 23.08457211 -35.99347134 24.47977244 -40 25 C-39.67 24.01 -39.34 23.02 -39 22 C-37.66666667 21.66666667 -36.33333333 21.33333333 -35 21 C-34.67 20.01 -34.34 19.02 -34 18 C-34.55429688 18.28875 -35.10859375 18.5775 -35.6796875 18.875 C-36.40414062 19.24625 -37.12859375 19.6175 -37.875 20 C-38.59429687 20.37125 -39.31359375 20.7425 -40.0546875 21.125 C-42 22 -42 22 -44 22 C-42.5412529 18.13473227 -40.75145854 17.02968041 -37.0625 15.3125 C-36.18722656 14.89613281 -35.31195313 14.47976562 -34.41015625 14.05078125 C-32 13 -32 13 -29 12 C-28.67 11.34 -28.34 10.68 -28 10 C-26.23754883 9.17797852 -26.23754883 9.17797852 -23.95703125 8.37890625 C-23.13009766 8.08306641 -22.30316406 7.78722656 -21.45117188 7.48242188 C-20.1450293 7.02706055 -20.1450293 7.02706055 -18.8125 6.5625 C-12.07646801 4.20245417 -12.07646801 4.20245417 -5.57421875 1.27734375 C-3 0 -3 0 0 0 Z " fill="#698ED1" transform="translate(137,25)"/>
<path d="M0 0 C0.66 0.33 1.32 0.66 2 1 C1.01 1.33 0.02 1.66 -1 2 C-1.33 3.98 -1.66 5.96 -2 8 C-2.495 7.01 -2.495 7.01 -3 6 C-3.99 6 -4.98 6 -6 6 C-6 6.66 -6 7.32 -6 8 C-7.54107422 8.61875 -7.54107422 8.61875 -9.11328125 9.25 C-25.45874809 15.73491697 -25.45874809 15.73491697 -36 29 C-37.37815131 34.38731875 -37.70040898 40.48011018 -37 46 C-35.55057625 48.18668118 -35.55057625 48.18668118 -34 50 C-34 50.66 -34 51.32 -34 52 C-33.1028125 52.0928125 -33.1028125 52.0928125 -32.1875 52.1875 C-29.12856542 53.3236757 -28.44958901 55.17330142 -27 58 C-32.80239582 56.98976144 -36.59404414 52.67328429 -40.40625 48.4375 C-44.21189912 43.0008584 -43.89435961 36.33896987 -43 30 C-37.85620579 15.97974675 -20.21056289 9.41761718 -7.75 3.4375 C-7.01088379 3.07865723 -6.27176758 2.71981445 -5.51025391 2.35009766 C-3.70223458 1.50252255 -1.85356908 0.7426972 0 0 Z M-35 21 C-36.32 22.32 -37.64 23.64 -39 25 C-38.67 25.99 -38.34 26.98 -38 28 C-36.68 26.35 -35.36 24.7 -34 23 C-34.33 22.34 -34.66 21.68 -35 21 Z M-41 30 C-40 34 -40 34 -40 34 Z M-41 42 C-40 44 -40 44 -40 44 Z " fill="#0E1D3A" transform="translate(120,39)"/>
<path d="M0 0 C2.56269497 1.04109483 4.02610343 2.02610343 6 4 C6.81749668 10.40195454 6.53005982 16.49725969 3 22 C-1.52014351 26.35534661 -5.60547656 30.19781964 -12 31 C-12.33 30.01 -12.66 29.02 -13 28 C-11.68 27.67 -10.36 27.34 -9 27 C-9 26.34 -9 25.68 -9 25 C-9.99 24.67 -10.98 24.34 -12 24 C-11.67 23.34 -11.34 22.68 -11 22 C-10.34 22 -9.68 22 -9 22 C-8.8453125 21.13375 -8.8453125 21.13375 -8.6875 20.25 C-7.89103535 17.64338842 -6.80934723 16.0264689 -5 14 C-4.34 14 -3.68 14 -3 14 C-2.95101562 13.07316406 -2.90203125 12.14632812 -2.8515625 11.19140625 C-2.77679688 9.99386719 -2.70203125 8.79632813 -2.625 7.5625 C-2.55539063 6.36753906 -2.48578125 5.17257813 -2.4140625 3.94140625 C-2.27742187 2.97074219 -2.14078125 2.00007813 -2 1 C-1.34 0.67 -0.68 0.34 0 0 Z " fill="#B7D2F5" transform="translate(181,66)"/>
<path d="M0 0 C-0.15020358 4.95671803 -2.77809256 7.10886796 -6.171875 10.31640625 C-6.77515625 10.87199219 -7.3784375 11.42757812 -8 12 C-13.07959633 16.95260642 -18.0564681 22.08470215 -22 28 C-25.54710645 26.55172728 -27.16217237 24.77818647 -29.375 21.6875 C-31.45448863 18.90151843 -33.36917741 16.49868802 -36.125 14.375 C-39.60160501 11.50302195 -41.64908533 8.84695127 -44 5 C-43.67 4.01 -43.34 3.02 -43 2 C-41.18107883 3.42936639 -39.37004119 4.86876965 -37.5625 6.3125 C-36.04849609 7.51326172 -36.04849609 7.51326172 -34.50390625 8.73828125 C-32 11 -32 11 -31 14 C-30.34 14 -29.68 14 -29 14 C-27.58398438 16.68554688 -27.58398438 16.68554688 -26.16796875 19.37109375 C-25.00980201 21.32267987 -25.00980201 21.32267987 -22 22 C-21.9071875 21.1646875 -21.9071875 21.1646875 -21.8125 20.3125 C-20.64897084 17.00091701 -18.55537113 15.38501305 -16 13 C-14.93619802 11.89708766 -13.87369974 10.79291639 -12.8125 9.6875 C-10 7 -10 7 -8 7 C-7.67 6.01 -7.34 5.02 -7 4 C-2.54285714 0 -2.54285714 0 0 0 Z " fill="#152133" transform="translate(164,83)"/>
<path d="M0 0 C4.90249029 3.45562353 9.51697528 7.20469259 14 11.1875 C14.94875 12.02667969 15.8975 12.86585937 16.875 13.73046875 C19 16 19 16 19 19 C17.35 19 15.7 19 14 19 C13.31292445 21.49064888 13 23.37886292 13 26 C11.35 26.33 9.7 26.66 8 27 C8 27.66 8 28.32 8 29 C-0.93824669 29.32177688 -8.56247415 29.33530434 -17 26 C-13.73086376 24.96884721 -11.13958652 25.0361016 -7.75 25.4375 C-6.85796875 25.53933594 -5.9659375 25.64117187 -5.046875 25.74609375 C-4.37140625 25.82988281 -3.6959375 25.91367188 -3 26 C-3 26.66 -3 27.32 -3 28 C-1.66102417 27.04956626 -0.32894573 26.08940853 1 25.125 C2.11375 24.32449219 2.11375 24.32449219 3.25 23.5078125 C3.8275 23.01023437 4.405 22.51265625 5 22 C5 21.34 5 20.68 5 20 C4.67 20.66 4.34 21.32 4 22 C2.68 21.67 1.36 21.34 0 21 C0.66 20.67 1.32 20.34 2 20 C2 19.34 2 18.68 2 18 C3.32 18 4.64 18 6 18 C7.35368596 16.68733482 8.68799596 15.35432675 10 14 C10.99 14 11.98 14 13 14 C12.67 13.34 12.34 12.68 12 12 C9.6859378 11.26924352 7.35171131 10.59861742 5 10 C4.67 11.32 4.34 12.64 4 14 C3.01 14 2.02 14 1 14 C1 10 1 10 2.5 8.25 C2.995 7.8375 3.49 7.425 4 7 C3.01 5.824375 3.01 5.824375 2 4.625 C0 2 0 2 0 0 Z " fill="#779DD3" transform="translate(106,80)"/>
<path d="M0 0 C5.92496539 1.43563418 10.95135111 3.81388997 16.3125 6.6875 C17.15119629 7.13593262 17.98989258 7.58436523 18.85400391 8.04638672 C38.49941025 18.69034791 38.49941025 18.69034791 41 27 C41.38433953 32.04253464 41.29552458 36.95638057 41 42 C40.34 42 39.68 42 39 42 C38.34 44.31 37.68 46.62 37 49 C35.875 47.3125 35.875 47.3125 35 45 C35.66666667 43.33333333 36.33333333 41.66666667 37 40 C37.63157217 34.95476653 37.66813213 30.48151037 35.5625 25.8125 C30.61782752 20.38542044 25.94376527 15.59895214 19 13 C16.20557123 11.67209724 13.44822188 10.27139731 10.6875 8.875 C9.94693359 8.50246094 9.20636719 8.12992188 8.44335938 7.74609375 C6.62798783 6.83255194 4.81386718 5.91652513 3 5 C2.67 6.32 2.34 7.64 2 9 C0 2.25 0 2.25 0 0 Z M35 21 C36 23 36 23 36 23 Z M39 28 C40 30 40 30 40 30 Z " fill="#122247" transform="translate(163,41)"/>
<path d="M0 0 C4.21929116 0.46881013 6.1503639 0.91289423 9 4 C10.97620986 5.04622875 12.9737129 6.05439935 15 7 C15 7.66 15 8.32 15 9 C17.475 9.495 17.475 9.495 20 10 C20 10.66 20 11.32 20 12 C20.99 12 21.98 12 23 12 C23.495 13.485 23.495 13.485 24 15 C13.00358402 16.35572252 6.07264923 13.16818357 -3.21728516 7.96582031 C-5.56174068 6.6956661 -7.97735855 5.64973301 -10.4375 4.625 C-14 3 -14 3 -15 1 C-2.96116505 2.44466019 -2.96116505 2.44466019 1 7 C1.66 7.33 2.32 7.66 3 8 C2.67 7.01 2.34 6.02 2 5 C3.32 5 4.64 5 6 5 C3.525 4.505 3.525 4.505 1 4 C1.33 3.34 1.66 2.68 2 2 C1.34 1.34 0.68 0.68 0 0 Z " fill="#5B83D1" transform="translate(172,36)"/>
<path d="M0 0 C2.2578125 0.52734375 2.2578125 0.52734375 3.875 1.0625 C3.215 2.3825 2.555 3.7025 1.875 5.0625 C0.72 4.85625 -0.435 4.65 -1.625 4.4375 C-4.87729525 4.41439311 -5.89086263 4.84866835 -8.33203125 7.078125 C-14.07154579 14.19128959 -17.24823018 20.00254516 -18.125 29.0625 C-18.32738281 29.70445313 -18.52976562 30.34640625 -18.73828125 31.0078125 C-19.24195147 33.68387853 -18.62057961 35.27452346 -17.6875 37.8125 C-17.40003906 38.61171875 -17.11257812 39.4109375 -16.81640625 40.234375 C-16.58824219 40.83765625 -16.36007813 41.4409375 -16.125 42.0625 C-19.47798369 40.46221233 -21.38534918 39.45481911 -23.125 36.0625 C-24.10867999 29.56223631 -22.71581587 23.05227613 -20.125 17.0625 C-19.465 16.7325 -18.805 16.4025 -18.125 16.0625 C-17.795 15.0725 -17.465 14.0825 -17.125 13.0625 C-14.3173779 6.25614338 -7.7921368 -0.90004112 0 0 Z " fill="#1C2B45" transform="translate(140.125,41.9375)"/>
<path d="M0 0 C4.00638836 1.42044678 7.18022159 3.33093098 10.625 5.8125 C11.56601563 6.47894531 12.50703125 7.14539062 13.4765625 7.83203125 C17.33182113 11.14421165 18.87069445 13.43281679 19.29296875 18.55078125 C19.25816406 19.79214844 19.22335938 21.03351563 19.1875 22.3125 C19.16042969 23.56675781 19.13335937 24.82101563 19.10546875 26.11328125 C19.07066406 27.06589844 19.03585938 28.01851562 19 29 C17.125 30.0625 17.125 30.0625 15 31 C14.34 30.67 13.68 30.34 13 30 C13.15984375 29.29101562 13.3196875 28.58203125 13.484375 27.8515625 C14.00377035 24.97914883 14.20178846 22.29179796 14.25 19.375 C14.28867188 17.96347656 14.28867188 17.96347656 14.328125 16.5234375 C14.19279113 13.98063552 14.19279113 13.98063552 12.734375 12.1640625 C10.79458715 10.62847542 10.79458715 10.62847542 7 11 C7.01160156 11.68707031 7.02320313 12.37414062 7.03515625 13.08203125 C7.04869141 14.43361328 7.04869141 14.43361328 7.0625 15.8125 C7.07410156 16.70582031 7.08570313 17.59914063 7.09765625 18.51953125 C7 21 7 21 6 24 C5.34 24 4.68 24 4 24 C4.20625 22.824375 4.4125 21.64875 4.625 20.4375 C5.38249541 14.39887463 3.23658262 9.5169038 1 4 C0.64141484 2.67323492 0.2981424 1.34164079 0 0 Z M17 22 C18 25 18 25 18 25 Z M16 26 C17 28 17 28 17 28 Z " fill="#6E84A1" transform="translate(172,56)"/>
<path d="M0 0 C1.32 0.33 2.64 0.66 4 1 C4 1.99 4 2.98 4 4 C3.01 4 2.02 4 1 4 C1.165 4.804375 1.33 5.60875 1.5 6.4375 C1.90080016 9.29320114 2.00906982 11.70924968 1.9375 14.5625 C1.88288545 18.15492365 2.32371449 20.75219683 4 24 C2.35 23.67 0.7 23.34 -1 23 C-0.67 22.01 -0.34 21.02 0 20 C-0.99 20 -1.98 20 -3 20 C-2.67 22.97 -2.34 25.94 -2 29 C-2.639375 28.195625 -3.27875 27.39125 -3.9375 26.5625 C-5.40603502 24.7249496 -5.40603502 24.7249496 -7 23 C-7.50369156 16.33487217 -6.92581702 10.37926889 -5 4 C-4.01 4 -3.02 4 -2 4 C-1.34 2.68 -0.68 1.36 0 0 Z " fill="#6B9BEA" transform="translate(89,62)"/>
<path d="M0 0 C1.625 1.625 1.625 1.625 3 4 C2.23211466 7.76263819 1.23109396 10.7630888 -2 13 C-3.32 13 -4.64 13 -6 13 C-6.33 13.99 -6.66 14.98 -7 16 C-7.556875 15.21625 -8.11375 14.4325 -8.6875 13.625 C-11.11829349 10.8657209 -12.65535888 10.26553988 -16 9 C-17 6 -17 6 -16 3 C-12.96703144 0.92025013 -10.991297 0.87462794 -7.4375 1.5 C-3.5353393 2.19633285 -3.5353393 2.19633285 0 0 Z " fill="#3E659D" transform="translate(149,79)"/>
<path d="M0 0 C1.1446875 0.12375 1.1446875 0.12375 2.3125 0.25 C2.3125 1.57 2.3125 2.89 2.3125 4.25 C12.02270618 6.52044487 20.46282143 6.50075283 30.3125 5.25 C20.20740471 11.98673019 4.10504274 11.30977007 -7.6875 12.25 C-7.6875 8.37808566 -7.54927761 7.38562545 -5.6875 4.25 C-5.254375 3.5075 -4.82125 2.765 -4.375 2 C-2.6875 0.25 -2.6875 0.25 0 0 Z " fill="#5A8CE6" transform="translate(159.6875,100.75)"/>
<path d="M0 0 C0.4125 0.474375 0.825 0.94875 1.25 1.4375 C3.182185 3.16266518 4.48192275 3.56584875 7 4 C9.68720631 12.06161892 7.56839691 19.58971592 4 27 C3.34 27.33 2.68 27.66 2 28 C2.14107747 26.54119891 2.28802415 25.08296449 2.4375 23.625 C2.55931641 22.40683594 2.55931641 22.40683594 2.68359375 21.1640625 C3 19 3 19 4 17 C3.01 17.33 2.02 17.66 1 18 C0.01 17.34 -0.98 16.68 -2 16 C-2.29296875 12.7421875 -2.29296875 12.7421875 -2.1875 8.875 C-2.16042969 7.59367187 -2.13335937 6.31234375 -2.10546875 4.9921875 C-2.07066406 4.00476563 -2.03585938 3.01734375 -2 2 C-1.34 2 -0.68 2 0 2 C0 1.34 0 0.68 0 0 Z " fill="#6490DF" transform="translate(207,64)"/>
<path d="M0 0 C2.4375 0.375 2.4375 0.375 5 1 C5.33 1.66 5.66 2.32 6 3 C5.01 3.33 4.02 3.66 3 4 C4.68807908 8.23084903 4.68807908 8.23084903 8 11 C8 11.99 8 12.98 8 14 C4.64564078 12.61198929 2.88709697 11.11371 1 8 C1 7.01 1 6.02 1 5 C-7.29362155 7.09033618 -7.29362155 7.09033618 -14 12 C-14.66 12 -15.32 12 -16 12 C-16.28875 12.886875 -16.5775 13.77375 -16.875 14.6875 C-18 18 -18 18 -19.0546875 20.2890625 C-20.19007104 23.54507976 -20.26570004 26.24526545 -20.25 29.6875 C-20.25515625 30.82574219 -20.2603125 31.96398437 -20.265625 33.13671875 C-20.2953449 36.13049917 -20.2953449 36.13049917 -18 38 C-17.28591666 39.98356483 -16.61382258 41.98315437 -16 44 C-19.16115776 42.63016497 -19.9927092 42.0109362 -22 39 C-22.66796875 36.5546875 -22.66796875 36.5546875 -23.1875 33.875 C-23.45626953 32.54082031 -23.45626953 32.54082031 -23.73046875 31.1796875 C-23.81941406 30.46039063 -23.90835938 29.74109375 -24 29 C-23.67 28.67 -23.34 28.34 -23 28 C-22.80522261 26.37585622 -22.61940542 24.75063577 -22.4375 23.125 C-21.2424285 16.083271 -17.55748242 11.34263285 -13 6 C-12.505 5.401875 -12.01 4.80375 -11.5 4.1875 C-9.5153462 2.61631574 -8.4216484 2.77712313 -5.9375 3 C-4.638125 3 -3.33875 3 -2 3 C-1.34 2.01 -0.68 1.02 0 0 Z " fill="#233859" transform="translate(144,43)"/>
<path d="M0 0 C0.99 0 1.98 0 3 0 C2.89608312 4.26059192 1.80060295 6.66480922 -1 9.75 C-4.90152164 13.42440604 -8.76550061 14.41838896 -14 15 C-14 14.34 -14 13.68 -14 13 C-16.31 13.66 -18.62 14.32 -21 15 C-19.48171408 10.33669324 -17.54637178 8.4287205 -13.3125 6.25 C-8.93943062 4.25290077 -4.7032685 2.95807321 0 2 C0 1.34 0 0.68 0 0 Z " fill="#83AAE3" transform="translate(114,45)"/>
<path d="M0 0 C1.32 0.66 2.64 1.32 4 2 C3.67 2.66 3.34 3.32 3 4 C3.886875 4.391875 4.77375 4.78375 5.6875 5.1875 C9.18256725 7.09989529 11.46101487 8.93828264 14 12 C14 13.32 14 14.64 14 16 C14.61875 16.103125 15.2375 16.20625 15.875 16.3125 C18 17 18 17 20 20 C18.56163249 19.88541307 17.12429034 19.75790884 15.6875 19.625 C14.88699219 19.55539063 14.08648437 19.48578125 13.26171875 19.4140625 C11 19 11 19 8 17 C8 16.34 8 15.68 8 15 C7.1028125 14.566875 7.1028125 14.566875 6.1875 14.125 C3.32082988 12.65071251 1.3415965 11.6148737 -0.25 8.75 C-1.1401241 5.48621162 -0.75933605 3.265145 0 0 Z " fill="#9CBAE7" transform="translate(86,80)"/>
<path d="M0 0 C0.96164063 0.01546875 1.92328125 0.0309375 2.9140625 0.046875 C5.375 0.25 5.375 0.25 7.375 1.25 C7.045 2.24 6.715 3.23 6.375 4.25 C5.385 3.59 4.395 2.93 3.375 2.25 C1.3853005 1.85986284 -0.61519869 1.51797351 -2.625 1.25 C-2.625 1.91 -2.625 2.57 -2.625 3.25 C-3.305625 3.765625 -3.98625 4.28125 -4.6875 4.8125 C-6.95683624 7.6674714 -6.84615744 8.31687731 -6.5 11.8125 C-6.04391387 15.11078141 -5.54252758 16.37370863 -3.625 19.25 C1.05804146 19.8300207 1.05804146 19.8300207 5.1875 17.9375 C6.27491036 16.39223264 7.32687897 14.82218154 8.375 13.25 C8.6875 16.0625 8.6875 16.0625 8.375 19.25 C6.1155157 21.5094843 4.43685564 22.18558596 1.25 22.37890625 C-2.69376446 22.15906803 -5.87467931 21.49796892 -9.125 19.1875 C-11.84767605 15.98835564 -12.5807749 14.27396532 -12.796875 10.17578125 C-12.454633 6.34111524 -10.60798497 4.15452054 -7.86328125 1.62890625 C-5.053109 -0.10231679 -3.27563003 -0.08829191 0 0 Z " fill="#97BCE1" transform="translate(142.625,59.75)"/>
<path d="M0 0 C0.57363281 0.37511719 1.14726563 0.75023437 1.73828125 1.13671875 C-1.17912366 4.14529256 -4.16117105 6.89618099 -7.38671875 9.57421875 C-13.56370878 15.00671281 -14.60446981 19.94188135 -15.1484375 27.94140625 C-15.18582031 28.66585937 -15.22320312 29.3903125 -15.26171875 30.13671875 C-15.59171875 30.13671875 -15.92171875 30.13671875 -16.26171875 30.13671875 C-16.92171875 26.83671875 -17.58171875 23.53671875 -18.26171875 20.13671875 C-18.92171875 20.46671875 -19.58171875 20.79671875 -20.26171875 21.13671875 C-19.96871775 15.27669883 -17.22742724 11.28125229 -13.26171875 7.13671875 C-12.60171875 7.13671875 -11.94171875 7.13671875 -11.26171875 7.13671875 C-10.93171875 6.14671875 -10.60171875 5.15671875 -10.26171875 4.13671875 C-8.5546875 2.6796875 -8.5546875 2.6796875 -6.44921875 1.32421875 C-5.76214844 0.86402344 -5.07507813 0.40382812 -4.3671875 -0.0703125 C-2.26171875 -0.86328125 -2.26171875 -0.86328125 0 0 Z " fill="#4B78D7" transform="translate(92.26171875,49.86328125)"/>
<path d="M0 0 C0.99 0 1.98 0 3 0 C2.01 3.63 1.02 7.26 0 11 C-0.66 11 -1.32 11 -2 11 C-2.309375 11.78375 -2.61875 12.5675 -2.9375 13.375 C-4 16 -4 16 -5 18 C-4.34 18 -3.68 18 -3 18 C-3 18.66 -3 19.32 -3 20 C-3.66 20.66 -4.32 21.32 -5 22 C-5.33 22.66 -5.66 23.32 -6 24 C-9.1501863 20.37251275 -10.39121869 17.93082856 -10.25 13.0625 C-9.51035371 7.74026255 -6.97654567 5.43755698 -2.8125 2.27734375 C-2.214375 1.85582031 -1.61625 1.43429688 -1 1 C-0.67 0.67 -0.34 0.34 0 0 Z " fill="#A2C0E9" transform="translate(103,62)"/>
<path d="M0 0 C0.66 0 1.32 0 2 0 C3.02137457 1.65365406 4.01612294 3.32376502 5 5 C5.845625 5.9075 6.69125 6.815 7.5625 7.75 C12.50070882 13.56578207 12.49354632 21.70961574 12 29 C11.5 32.0625 11.5 32.0625 11 34 C10.34 34 9.68 34 9 34 C8.67 35.32 8.34 36.64 8 38 C7.67 38 7.34 38 7 38 C6.875 32.25 6.875 32.25 8 30 C7.97691383 27.88379595 7.97691383 27.88379595 7.6875 25.5625 C7.60886719 24.78003906 7.53023437 23.99757813 7.44921875 23.19140625 C7.08613351 20.72152882 7.08613351 20.72152882 5 18 C4.62109375 15.84375 4.62109375 15.84375 4.4375 13.5 C4.21055682 10.72110398 3.89248246 8.67744737 3 6 C2.34 6 1.68 6 1 6 C0.67 4.02 0.34 2.04 0 0 Z " fill="#213352" transform="translate(150,46)"/>
<path d="M0 0 C6.89488531 1.89859161 13.27729265 4.63984202 19 9 C19.33 9.99 19.66 10.98 20 12 C20.66 12 21.32 12 22 12 C22 12.66 22 13.32 22 14 C21.37351563 13.84402344 20.74703125 13.68804687 20.1015625 13.52734375 C19.28429687 13.33269531 18.46703125 13.13804688 17.625 12.9375 C16.81289062 12.74027344 16.00078125 12.54304688 15.1640625 12.33984375 C12.95838716 11.77890681 12.95838716 11.77890681 11 13 C9.16015625 12.109375 9.16015625 12.109375 7.0625 10.75 C6.37285156 10.31171875 5.68320313 9.8734375 4.97265625 9.421875 C3.08199077 8.0590983 1.49981187 6.78393772 0 5 C-0.1875 2.3125 -0.1875 2.3125 0 0 Z " fill="#87ACE2" transform="translate(166,46)"/>
<path d="M0 0 C3.94139078 1.66751148 6.7892812 4.22710649 10 7 C9.34 8.32 8.68 9.64 8 11 C8.66 11.33 9.32 11.66 10 12 C9.34 12.66 8.68 13.32 8 14 C7.53603307 16.89223503 7.53603307 16.89223503 7.375 20.125 C7.30023438 21.22070312 7.22546875 22.31640625 7.1484375 23.4453125 C7.09945312 24.28835937 7.05046875 25.13140625 7 26 C6.67 26 6.34 26 6 26 C5.96132812 25.02160156 5.96132812 25.02160156 5.921875 24.0234375 C5.54952829 18.28591322 4.99876415 14.4088938 1 10 C-1.08327465 8.60583914 -3.1767101 7.35141854 -5.390625 6.17578125 C-5.92171875 5.78777344 -6.4528125 5.39976563 -7 5 C-7 4.01 -7 3.02 -7 2 C-0.375 2.75 -0.375 2.75 3 5 C3 4.34 3 3.68 3 3 C2.34 3 1.68 3 1 3 C0.67 2.01 0.34 1.02 0 0 Z " fill="#709EE4" transform="translate(185,55)"/>
<path d="M0 0 C0.66 0.66 1.32 1.32 2 2 C1 5 1 5 -1 6 C3.46146662 5.69535062 3.46146662 5.69535062 6.75 2.9375 C7.1625 2.298125 7.575 1.65875 8 1 C8.66 1 9.32 1 10 1 C9.75266048 4.88435475 9.35338854 6.6175577 6.671875 9.51953125 C5.22554687 10.65455078 5.22554687 10.65455078 3.75 11.8125 C2.79609375 12.58207031 1.8421875 13.35164063 0.859375 14.14453125 C-1.9104585 15.94189589 -3.75498694 16.63878504 -7 17 C-7.33 16.01 -7.66 15.02 -8 14 C-6.68 13.67 -5.36 13.34 -4 13 C-4 12.34 -4 11.68 -4 11 C-4.99 10.67 -5.98 10.34 -7 10 C-6.67 9.34 -6.34 8.68 -6 8 C-5.34 8 -4.68 8 -4 8 C-3.896875 7.4225 -3.79375 6.845 -3.6875 6.25 C-2.90207202 3.67950842 -1.69495803 2.06342716 0 0 Z " fill="#AFCBF1" transform="translate(176,80)"/>
<path d="M0 0 C0.66 0.33 1.32 0.66 2 1 C1.67 3.97 1.34 6.94 1 10 C-0.65 10.33 -2.3 10.66 -4 11 C-4 11.66 -4 12.32 -4 13 C-12.93824669 13.32177688 -20.56247415 13.33530434 -29 10 C-25.73086376 8.96884721 -23.13958652 9.0361016 -19.75 9.4375 C-18.41195312 9.59025391 -18.41195312 9.59025391 -17.046875 9.74609375 C-16.37140625 9.82988281 -15.6959375 9.91367188 -15 10 C-15 10.66 -15 11.32 -15 12 C-14.46890625 11.566875 -13.9378125 11.13375 -13.390625 10.6875 C-12.68421875 10.130625 -11.9778125 9.57375 -11.25 9 C-10.55390625 8.443125 -9.8578125 7.88625 -9.140625 7.3125 C-7 6 -7 6 -3 6 C-2.87625 5.38125 -2.7525 4.7625 -2.625 4.125 C-2 2 -2 2 0 0 Z " fill="#72A0E6" transform="translate(118,96)"/>
<path d="M0 0 C2.97302786 2.18990342 5.5604631 4.72420281 8.1875 7.3125 C8.89841797 7.98990234 9.60933594 8.66730469 10.34179688 9.36523438 C13.52150713 12.42529419 16.41628357 15.41087335 19 19 C18.67 19.66 18.34 20.32 18 21 C17.25234375 20.16855469 16.5046875 19.33710937 15.734375 18.48046875 C14.73976668 17.38264636 13.74496479 16.28499933 12.75 15.1875 C12.01330078 14.36668945 12.01330078 14.36668945 11.26171875 13.52929688 C5.69546651 7.40641941 1.91715261 5.08614351 -6.58203125 4.51953125 C-12.65508387 5.37322893 -16.12921454 9.51757801 -20 14 C-20 11 -20 11 -17.4453125 8.3359375 C-16.34611129 7.34053495 -15.23896027 6.35385754 -14.125 5.375 C-13.56941406 4.87226562 -13.01382813 4.36953125 -12.44140625 3.8515625 C-7.87808979 -0.2389284 -6.07300018 -1.82820421 0 0 Z " fill="#060E1A" transform="translate(145,38)"/>
<path d="M0 0 C-0.1203284 3.97083717 -1.53808709 5.81161779 -4.25 8.5 C-5.49526679 9.67171743 -6.74502835 10.83868295 -8 12 C-8.845625 12.86625 -9.69125 13.7325 -10.5625 14.625 C-13.26248758 17.25575713 -16.07718162 19.62096179 -19 22 C-19.80078125 20.359375 -19.80078125 20.359375 -20 18 C-18.45879946 15.86557141 -17.0016444 14.12060627 -15.1875 12.25 C-14.72279297 11.74339844 -14.25808594 11.23679687 -13.77929688 10.71484375 C-12.56987901 9.42734295 -11.28901653 8.20780224 -10 7 C-9.34 7 -8.68 7 -8 7 C-7.67 6.01 -7.34 5.02 -7 4 C-2.54285714 0 -2.54285714 0 0 0 Z " fill="#1E2C42" transform="translate(164,83)"/>
<path d="M0 0 C-0.53153424 3.95107118 -2.30061905 5.55649937 -5.25 8.125 C-6.01828125 8.80820312 -6.7865625 9.49140625 -7.578125 10.1953125 C-9.99171922 11.99382948 -12.16586154 13.02513677 -15 14 C-14.6875 12.125 -14.6875 12.125 -14 10 C-13.01 9.34 -12.02 8.68 -11 8 C-16.50781062 8.5227866 -16.50781062 8.5227866 -21.75 10.125 C-24.38156251 11.14838542 -25.36695131 10.78548932 -28 10 C-27.45585449 9.80365967 -26.91170898 9.60731934 -26.35107422 9.4050293 C-23.85767283 8.50294074 -21.36633902 7.59526796 -18.875 6.6875 C-18.0190625 6.37876953 -17.163125 6.07003906 -16.28125 5.75195312 C-12.59436505 4.40482209 -9.08014256 3.04043639 -5.5703125 1.26953125 C-3 0 -3 0 0 0 Z " fill="#466190" transform="translate(137,25)"/>
<path d="M0 0 C0.66 0.33 1.32 0.66 2 1 C1.175 1.598125 0.35 2.19625 -0.5 2.8125 C-3.1881709 5.49301229 -3.4452966 7.69718268 -3.5625 11.4375 C-3.33033694 16.37925657 -2.27370619 19.18067612 1 23 C1.5775 23.825 2.155 24.65 2.75 25.5 C5.7876629 28.875181 9.30246571 31.38839204 13 34 C12.01 34.495 12.01 34.495 11 35 C-3.44925575 25.1014885 -3.44925575 25.1014885 -7 18 C-7.57825746 13.26018474 -7.47260429 9.88002177 -5.1875 5.625 C-3.52697382 3.63236858 -1.92596844 1.7333716 0 0 Z " fill="#142441" transform="translate(97,63)"/>
<path d="M0 0 C2.12093023 0.81164833 4.22518699 1.66793728 6.3125 2.5625 C7.38113281 3.01753906 8.44976562 3.47257812 9.55078125 3.94140625 C10.76314453 4.46541016 10.76314453 4.46541016 12 5 C11 8 11 8 9 9 C7.28766312 8.9129796 5.57824594 8.75902838 3.875 8.5625 C2.50988281 8.40974609 2.50988281 8.40974609 1.1171875 8.25390625 C0.41851562 8.17011719 -0.28015625 8.08632812 -1 8 C-1 7.34 -1 6.68 -1 6 C-1.66 6 -2.32 6 -3 6 C-3.33 5.34 -3.66 4.68 -4 4 C-4.66 3.67 -5.32 3.34 -6 3 C-5.67 2.34 -5.34 1.68 -5 1 C-5.66 0.67 -6.32 0.34 -7 0 C-4.24645846 -1.37677077 -2.96306014 -0.77315392 0 0 Z " fill="#AECDFA" transform="translate(90,97)"/>
<path d="M0 0 C0.66 1.32 1.32 2.64 2 4 C1.195625 4.763125 0.39125 5.52625 -0.4375 6.3125 C-3.16799024 8.79430898 -3.16799024 8.79430898 -4 12 C-0.37 11.67 3.26 11.34 7 11 C3.84878137 12.57560932 0.85808279 13.86036647 -2.4375 15.0625 C-3.36433594 15.40410156 -4.29117188 15.74570313 -5.24609375 16.09765625 C-12.16192283 18.36369386 -12.16192283 18.36369386 -16.3125 16.5625 C-17.199375 16.046875 -18.08625 15.53125 -19 15 C-18.360625 14.71125 -17.72125 14.4225 -17.0625 14.125 C-14.84793921 13.17176549 -14.84793921 13.17176549 -14 11 C-13.01 12.485 -13.01 12.485 -12 14 C-11.34 14 -10.68 14 -10 14 C-8.28463002 11.88882475 -8.28463002 11.88882475 -6.5625 9.25 C-4.43782517 6.11117152 -2.30146918 3.01232052 0 0 Z " fill="#5576B1" transform="translate(152,101)"/>
<path d="M0 0 C-0.33 1.98 -0.66 3.96 -1 6 C-2.65 6.33 -4.3 6.66 -6 7 C-6 7.99 -6 8.98 -6 10 C-7.32 10 -8.64 10 -10 10 C-10 9.34 -10 8.68 -10 8 C-12.31 8.33 -14.62 8.66 -17 9 C-17 8.34 -17 7.68 -17 7 C-15.171875 5.5625 -15.171875 5.5625 -12.75 4 C-11.96109375 3.484375 -11.1721875 2.96875 -10.359375 2.4375 C-4.00881057 -1.43171806 -4.00881057 -1.43171806 0 0 Z " fill="#A1C1F1" transform="translate(204,92)"/>
<path d="M0 0 C1.11117187 0.45890625 2.22234375 0.9178125 3.3671875 1.390625 C11.22877402 4.63440202 19.0915629 7.87160105 27 11 C23.49595163 12.16801612 21.58912879 11.59818813 18 11 C17.01 11.33 16.02 11.66 15 12 C15 10.68 15 9.36 15 8 C13.35 8 11.7 8 10 8 C10.66 9.65 11.32 11.3 12 13 C6.90585562 11.6106879 3.07993613 8.207175 0 4 C0 2.68 0 1.36 0 0 Z " fill="#5977AD" transform="translate(145,24)"/>
<path d="M0 0 C0 2.68255839 -0.32491581 4.44968195 -1 7 C-2.19512382 12.25338599 -2.78436943 17.64435925 -2 23 C-0.54253657 25.17472874 -0.54253657 25.17472874 1 27 C1 27.66 1 28.32 1 29 C1.8971875 29.0928125 1.8971875 29.0928125 2.8125 29.1875 C5.87143458 30.3236757 6.55041099 32.17330142 8 35 C4.46167007 34.40632048 2.5845978 33.06937798 -0.0625 30.6875 C-0.73410156 30.09324219 -1.40570313 29.49898437 -2.09765625 28.88671875 C-3.97304014 27.02673843 -5.54251215 25.20212338 -7 23 C-7 22.34 -7 21.68 -7 21 C-6.34 21 -5.68 21 -5 21 C-5.03480469 20.29875 -5.06960937 19.5975 -5.10546875 18.875 C-5.28884392 12.448137 -4.75537653 7.82868112 -2 2 C-1.34 1.34 -0.68 0.68 0 0 Z " fill="#102443" transform="translate(85,62)"/>
<path d="M0 0 C0 3.61656862 -1.02130767 5.0319615 -3 8 C-3.66 8.66 -4.32 9.32 -5 10 C-4.34 10.33 -3.68 10.66 -3 11 C-3 11.66 -3 12.32 -3 13 C-5.31 13.33 -7.62 13.66 -10 14 C-10 14.66 -10 15.32 -10 16 C-11.32 16 -12.64 16 -14 16 C-14.33 16.99 -14.66 17.98 -15 19 C-16.875 20.25 -16.875 20.25 -19 21 C-19.99 20.67 -20.98 20.34 -22 20 C-16.69249841 14.46173747 -11.24020038 9.41386886 -5.1640625 4.7265625 C-3.30296948 3.24171934 -1.63821226 1.72276515 0 0 Z " fill="#859DC4" transform="translate(175,80)"/>
<path d="M0 0 C1.9375 0.9375 1.9375 0.9375 3.25 2.625 C4.15215796 5.65953131 3.63095348 7.88630471 2.9375 10.9375 C0.6275 11.5975 -1.6825 12.2575 -4.0625 12.9375 C-6.0625 9.9375 -6.0625 9.9375 -5.875 6.4375 C-5.0625 2.9375 -5.0625 2.9375 -3.75 0.9375 C-2.0625 -0.0625 -2.0625 -0.0625 0 0 Z " fill="#507DC3" transform="translate(143.0625,67.0625)"/>
<path d="M0 0 C0.99 0.66 1.98 1.32 3 2 C2.34 2 1.68 2 1 2 C1 2.66 1 3.32 1 4 C4.465 3.505 4.465 3.505 8 3 C8 3.66 8 4.32 8 5 C9.32 5.33 10.64 5.66 12 6 C6.8531808 9.16727335 2.841744 9.35050464 -3 9 C-3 8.34 -3 7.68 -3 7 C-4.32 6.34 -5.64 5.68 -7 5 C-4.87219421 2.65941363 -2.88437779 1.29299694 0 0 Z " fill="#A4C5F2" transform="translate(186,97)"/>
<path d="M0 0 C0.99 0.33 1.98 0.66 3 1 C3.36850106 6.77318321 2.65741548 11.79224439 0 17 C-1.8770074 19.0584992 -3.68433103 20.40476138 -6 22 C-6 21.01 -6 20.02 -6 19 C-5.34 19 -4.68 19 -4 19 C-3.23776117 15.27349908 -2.91911818 12.64797614 -4 9 C-3.67 8.67 -3.34 8.34 -3 8 C-2.855625 6.845 -2.71125 5.69 -2.5625 4.5 C-2.376875 3.345 -2.19125 2.19 -2 1 C-1.34 0.67 -0.68 0.34 0 0 Z " fill="#32507B" transform="translate(154,70)"/>
<path d="M0 0 C1.98 0.495 1.98 0.495 4 1 C2.35 1.33 0.7 1.66 -1 2 C-0.67 1.34 -0.34 0.68 0 0 Z M-3 2 C-2.34 2.33 -1.68 2.66 -1 3 C-1.928125 3.7425 -2.85625 4.485 -3.8125 5.25 C-8.34168795 9.05451788 -10.23205888 12.3173321 -12 18 C-12.33 18.33 -12.66 18.66 -13 19 C-13.23427778 21.01594582 -13.41336124 23.038474 -13.5625 25.0625 C-13.64628906 26.16722656 -13.73007813 27.27195312 -13.81640625 28.41015625 C-13.87699219 29.26480469 -13.93757813 30.11945313 -14 31 C-14.66 31 -15.32 31 -16 31 C-16.68473396 14.36350075 -16.68473396 14.36350075 -10.625 7.1875 C-8.15967428 5.1330619 -5.88670648 3.40434369 -3 2 Z " fill="#294168" transform="translate(139,48)"/>
<path d="M0 0 C3.87992315 1.47169499 5.22480768 3.28823424 7 7 C7.29296875 10.55078125 7.29296875 10.55078125 7.1875 14.3125 C7.16042969 15.56675781 7.13335937 16.82101563 7.10546875 18.11328125 C7.07066406 19.06589844 7.03585938 20.01851562 7 21 C5.125 22.0625 5.125 22.0625 3 23 C2.34 22.67 1.68 22.34 1 22 C1.15984375 21.29101562 1.3196875 20.58203125 1.484375 19.8515625 C2.00377035 16.97914883 2.20178846 14.29179796 2.25 11.375 C2.27578125 10.43398437 2.3015625 9.49296875 2.328125 8.5234375 C1.94993857 5.61500377 1.26678633 4.7776377 -1 3 C-0.67 2.01 -0.34 1.02 0 0 Z M5 14 C6 17 6 17 6 17 Z M4 18 C5 20 5 20 5 20 Z " fill="#09182F" transform="translate(184,64)"/>
<path d="M0 0 C0.33 1.32 0.66 2.64 1 4 C-0.32 4 -1.64 4 -3 4 C-3.20625 4.763125 -3.4125 5.52625 -3.625 6.3125 C-5.44671994 9.87313444 -7.3031495 10.64197328 -11 12 C-11.99 11.67 -12.98 11.34 -14 11 C-13.67 10.34 -13.34 9.68 -13 9 C-12.34 8.855625 -11.68 8.71125 -11 8.5625 C-10.01 8.2840625 -10.01 8.2840625 -9 8 C-8.67 7.01 -8.34 6.02 -8 5 C-8.55429688 5.28875 -9.10859375 5.5775 -9.6796875 5.875 C-10.40414062 6.24625 -11.12859375 6.6175 -11.875 7 C-12.59429687 7.37125 -13.31359375 7.7425 -14.0546875 8.125 C-16 9 -16 9 -18 9 C-16.97376309 6.13733914 -16.33404477 5.169443 -13.57421875 3.76953125 C-12.62160156 3.45371094 -11.66898437 3.13789062 -10.6875 2.8125 C-9.74261719 2.48894531 -8.79773438 2.16539063 -7.82421875 1.83203125 C-5.2257163 1.06649733 -2.66430965 0.48044928 0 0 Z " fill="#6596EF" transform="translate(111,38)"/>
<path d="M0 0 C1.125 3.75 1.125 3.75 0 6 C-0.0716735 8.55157655 -0.09308442 11.07472971 -0.0625 13.625 C-0.05573242 14.68460938 -0.05573242 14.68460938 -0.04882812 15.765625 C-0.03703875 17.51045275 -0.01910324 19.255237 0 21 C0.66 21.33 1.32 21.66 2 22 C2 23.65 2 25.3 2 27 C3.98 27.33 5.96 27.66 8 28 C8.309375 29.11375 8.61875 30.2275 8.9375 31.375 C9.82326483 34.7945155 9.82326483 34.7945155 11 37 C4.57369542 34.16853967 0.63154119 28.37109973 -2 22 C-4.20998436 14.16460092 -2.53076151 7.48683614 0 0 Z " fill="#5D7599" transform="translate(70,63)"/>
<path d="M0 0 C0.5534764 2.07553648 1 3.84365964 1 6 C1.99 6 2.98 6 4 6 C3.67 6.99 3.34 7.98 3 9 C0.69 8.67 -1.62 8.34 -4 8 C-3.67 6.68 -3.34 5.36 -3 4 C-6.87797662 3.56613908 -6.87797662 3.56613908 -8.75 5.5 C-9.1625 5.995 -9.575 6.49 -10 7 C-10.33 5.68 -10.66 4.36 -11 3 C-4.5 0 -4.5 0 0 0 Z M-14 9 C-13.34 9 -12.68 9 -12 9 C-10.375 11 -10.375 11 -9 13 C-9.99 13 -10.98 13 -12 13 C-12 13.66 -12 14.32 -12 15 C-13.32 15 -14.64 15 -16 15 C-15.125 10.125 -15.125 10.125 -14 9 Z " fill="#6C99E3" transform="translate(164,98)"/>
<path d="M0 0 C0 0.66 0 1.32 0 2 C-0.99 2 -1.98 2 -3 2 C-2.67 3.32 -2.34 4.64 -2 6 C-2.9075 6.5775 -3.815 7.155 -4.75 7.75 C-7.97077917 9.8253442 -7.97077917 9.8253442 -10.1875 12.25 C-12 14 -12 14 -15 14 C-15.33 14.99 -15.66 15.98 -16 17 C-16.99 17.33 -17.98 17.66 -19 18 C-16.76213151 11.47288356 -12.91848515 7.65460325 -7.375 3.6875 C-6.41335937 2.99011719 -5.45171875 2.29273438 -4.4609375 1.57421875 C-2 0 -2 0 0 0 Z " fill="#4870BB" transform="translate(90,45)"/>
<path d="M0 0 C3.624581 1.20819367 3.40170957 1.80341913 5 5 C5.99 5.33 6.98 5.66 8 6 C9.53266582 9.06533164 9.10276471 12.26754272 9.0625 15.625 C9.05798828 16.33140625 9.05347656 17.0378125 9.04882812 17.765625 C9.03703875 19.51045275 9.01910324 21.255237 9 23 C8.34 23 7.68 23 7 23 C6.34 25.31 5.68 27.62 5 30 C3.875 28.3125 3.875 28.3125 3 26 C3.66666667 24.33333333 4.33333333 22.66666667 5 21 C5.67224436 15.62986191 5.75025516 11.33109787 3.0625 6.5625 C2.381875 5.716875 1.70125 4.87125 1 4 C0.25 1.625 0.25 1.625 0 0 Z M7 9 C8 11 8 11 8 11 Z " fill="#0E1E3F" transform="translate(195,60)"/>
<path d="M0 0 C11.51366379 1.38163965 11.51366379 1.38163965 14.36328125 4.484375 C16.45243312 6.41895954 18.18056984 6.73655301 20.9375 7.375 C25.40378401 8.59426293 27.55940376 9.89536087 30 14 C24.66532706 13.4507201 20.72422779 11.58596888 16.0625 9.125 C14.70024112 8.41729938 13.33696637 7.71155061 11.97265625 7.0078125 C10.98483154 6.49589355 10.98483154 6.49589355 9.97705078 5.97363281 C8.03187926 5.01569949 6.06722438 4.18212057 4.05859375 3.3671875 C1 2 1 2 0 0 Z " fill="#7193CC" transform="translate(157,37)"/>
<path d="M0 0 C2.3125 -0.3125 2.3125 -0.3125 5 0 C6.625 2.4375 6.625 2.4375 8 5 C8.99 5.33 9.98 5.66 11 6 C11.33 4.35 11.66 2.7 12 1 C15.4375 1.8125 15.4375 1.8125 19 3 C19.33 3.99 19.66 4.98 20 6 C19.21625 6.268125 18.4325 6.53625 17.625 6.8125 C14.71885077 7.84814432 14.71885077 7.84814432 13 11 C11.01712504 9.54648985 9.03870613 8.08752713 7.0625 6.625 C6.49853516 6.2125 5.93457031 5.8 5.35351562 5.375 C1.11328125 2.2265625 1.11328125 2.2265625 0 0 Z " fill="#9DBFF2" transform="translate(99,88)"/>
<path d="M0 0 C2.71097227 0.37392721 3.82000467 0.81357627 5.75 2.8125 C7 5 7 5 7 9 C6.34 9 5.68 9 5 9 C5.04640625 10.26457031 5.0928125 11.52914062 5.140625 12.83203125 C5.17814212 14.49216391 5.21454235 16.15232208 5.25 17.8125 C5.28351563 18.64587891 5.31703125 19.47925781 5.3515625 20.33789062 C5.38832251 22.62620111 5.38495793 24.74321261 5 27 C2.984375 29.07421875 2.984375 29.07421875 1 30 C1.33 28.68 1.66 27.36 2 26 C2.66 26 3.32 26 4 26 C3.69228944 17.85097538 3.34521543 10.56309575 0 3 C0 2.01 0 1.02 0 0 Z " fill="#436CBF" transform="translate(200,57)"/>
<path d="M0 0 C0.66 0 1.32 0 2 0 C2.66 0.66 3.32 1.32 4 2 C6.31648799 3.03842565 8.64903024 4.0421975 11 5 C9 6 9 6 6 7 C6.33 7.66 6.66 8.32 7 9 C7.33 9.99 7.66 10.98 8 12 C8.66 12 9.32 12 10 12 C10 12.66 10 13.32 10 14 C4.88598182 12.9296241 2.61443581 11.05000102 -0.1640625 6.8203125 C-1 5 -1 5 -0.8125 2.0625 C-0.544375 1.381875 -0.27625 0.70125 0 0 Z " fill="#A4C3F2" transform="translate(79,91)"/>
<path d="M0 0 C2.56269497 1.04109483 4.02610343 2.02610343 6 4 C6.1953125 6.6015625 6.1953125 6.6015625 6.125 9.625 C6.10695312 10.62789062 6.08890625 11.63078125 6.0703125 12.6640625 C6.03550781 13.82035156 6.03550781 13.82035156 6 15 C5.34 14.01 4.68 13.02 4 12 C2.68612831 10.64748503 1.35573748 9.31054623 0 8 C-0.99 8.495 -0.99 8.495 -2 9 C-2 6.36 -2 3.72 -2 1 C-1.34 0.67 -0.68 0.34 0 0 Z " fill="#9BBDE5" transform="translate(181,66)"/>
<path d="M0 0 C0.639375 0.165 1.27875 0.33 1.9375 0.5 C8.99603915 1.65241455 15.94883991 0.89538541 23 0 C15.30219918 5.13186721 4.0709767 5.46314628 -5 6 C-5 5.34 -5 4.68 -5 4 C-3.02 3.67 -1.04 3.34 1 3 C0.67 2.01 0.34 1.02 0 0 Z " fill="#597DBD" transform="translate(167,106)"/>
<path d="M0 0 C0.66 0.66 1.32 1.32 2 2 C2.66 1.67 3.32 1.34 4 1 C6.00706464 7.27207701 4.98284456 12.92753853 3 19 C2.67 19 2.34 19 2 19 C-0.30844801 12.65176798 -0.19818283 6.70518586 0 0 Z " fill="#5C8FE8" transform="translate(71,68)"/>
<path d="M0 0 C2.875 -0.125 2.875 -0.125 6 0 C6.66 0.66 7.32 1.32 8 2 C7.67 2.99 7.34 3.98 7 5 C6.05125 4.835 5.1025 4.67 4.125 4.5 C1.19831099 3.9473365 1.19831099 3.9473365 -1 4 C-1.33 7.96 -1.66 11.92 -2 16 C-2.66 15.67 -3.32 15.34 -4 15 C-5.09845922 10.92826769 -5.633086 7.23602505 -3.6875 3.4375 C-2 2 -2 2 0 2 C0 1.34 0 0.68 0 0 Z " fill="#427299" transform="translate(140,61)"/>
<path d="M0 0 C0.66 1.32 1.32 2.64 2 4 C1.67 4.33 1.34 4.66 1 5 C0.62605426 10.74116691 1.01642703 16.34445544 2 22 C2.66 22 3.32 22 4 22 C3.67 22.66 3.34 23.32 3 24 C-0.82439629 20.57817174 -3.25059335 18.15217073 -4 13 C-2.12676056 2.12676056 -2.12676056 2.12676056 0 0 Z " fill="#304C78" transform="translate(128,66)"/>
<path d="M0 0 C0.33 0.66 0.66 1.32 1 2 C0.0625 4.625 0.0625 4.625 -1 7 C-1.66 7 -2.32 7 -3 7 C-4.72330907 14.09326321 -5.2494783 20.70968976 -5 28 C-7 27 -7 27 -8 24 C-9.17167975 15.21981754 -6.92972431 9.24133079 -2 2 C-1.34 1.34 -0.68 0.68 0 0 Z " fill="#121B2D" transform="translate(123,52)"/>
<path d="M0 0 C2 1 2 1 2.8125 2.625 C3.04747128 5.60130282 1.90191995 7.29024317 0.63671875 9.91796875 C-0.58042553 13.89795587 0.32595195 17.96383275 1 22 C-0.94734511 20.37721241 -1.90721805 19.47755414 -2.3984375 16.94921875 C-2.34585861 11.87535549 -1.73210649 8.43967305 1 4 C-3.08963819 6.28538605 -6.46362104 8.95706926 -10 12 C-9.35330586 10.65686601 -8.68096422 9.32608822 -8 8 C-7.566875 7.154375 -7.13375 6.30875 -6.6875 5.4375 C-4.75415103 2.64488483 -3.06909618 1.41650593 0 0 Z " fill="#303E52" transform="translate(105,58)"/>
<path d="M0 0 C-0.99 0.33 -1.98 0.66 -3 1 C-3.33 2.98 -3.66 4.96 -4 7 C-4.33 6.34 -4.66 5.68 -5 5 C-5.99 5 -6.98 5 -8 5 C-8 5.66 -8 6.32 -8 7 C-11.90028225 9.60018816 -15.47434569 9.15085514 -20 9 C-18.22694111 5.45388222 -14.04429398 4.43318883 -10.5625 2.8125 C-9.77294922 2.43158203 -8.98339844 2.05066406 -8.16992188 1.65820312 C-7.03586914 1.12549805 -7.03586914 1.12549805 -5.87890625 0.58203125 C-4.83585327 0.09053589 -4.83585327 0.09053589 -3.77172852 -0.41088867 C-2 -1 -2 -1 0 0 Z " fill="#26334B" transform="translate(122,40)"/>
<path d="M0 0 C1.625 1.625 1.625 1.625 3 4 C2.36556091 7.10875153 1.46348129 9.31581333 -0.3125 11.9375 C-2 13 -2 13 -4.625 12.8125 C-7 12 -7 12 -8 10 C-7.401875 9.62875 -6.80375 9.2575 -6.1875 8.875 C-3.50045201 6.57181601 -2.45745277 4.1925156 -1 1 C-0.67 0.67 -0.34 0.34 0 0 Z " fill="#3B5E90" transform="translate(149,79)"/>
<path d="M0 0 C2.78865451 5.07535121 2.7182791 9.45891828 1.171875 14.9296875 C-1.56053459 22.7802673 -1.56053459 22.7802673 -4 24 C-3.28621973 15.86290495 -1.67226118 7.98268072 0 0 Z " fill="#576F93" transform="translate(213,68)"/>
<path d="M0 0 C1.32 0.66 2.64 1.32 4 2 C3.67 2.66 3.34 3.32 3 4 C4.98 4.99 6.96 5.98 9 7 C9 7.33 9 7.66 9 8 C7.35 8 5.7 8 4 8 C5.32 10.31 6.64 12.62 8 15 C1.47120419 11.84816754 1.47120419 11.84816754 -0.25 8.75 C-1.1401241 5.48621162 -0.75933605 3.265145 0 0 Z " fill="#9CBDF1" transform="translate(86,80)"/>
<path d="M0 0 C0.66 0.33 1.32 0.66 2 1 C1.835 1.7425 1.67 2.485 1.5 3.25 C0.88074304 6.19006578 0.88074304 6.19006578 1 10 C-1.6638507 13.03382996 -4.52406746 15.91444048 -8 18 C-8.99 17.67 -9.98 17.34 -11 17 C-10.01 16.67 -9.02 16.34 -8 16 C-7.32558869 14.3364521 -6.6599679 12.66933058 -6 11 C-5.34 10.38125 -4.68 9.7625 -4 9.125 C-1.38051447 6.34179663 -0.8478701 3.67410375 0 0 Z " fill="#5E7FC1" transform="translate(198,80)"/>
<path d="M0 0 C0.66 0.66 1.32 1.32 2 2 C1.14277344 2.44730469 0.28554687 2.89460938 -0.59765625 3.35546875 C-6.68362346 6.57341534 -12.52431468 9.79772987 -18 14 C-17.11778377 10.14983413 -16.48780614 8.37900973 -13.3203125 5.91796875 C-12.26585938 5.34691406 -11.21140625 4.77585937 -10.125 4.1875 C-9.07570313 3.60355469 -8.02640625 3.01960938 -6.9453125 2.41796875 C-2.43270193 0.24545199 -2.43270193 0.24545199 0 0 Z " fill="#0B1833" transform="translate(104,48)"/>
<path d="M0 0 C0.99 0 1.98 0 3 0 C3.07347656 0.99580078 3.07347656 0.99580078 3.1484375 2.01171875 C3.71125812 8.7112236 3.71125812 8.7112236 6 15 C4.35 14.67 2.7 14.34 1 14 C1.33 13.01 1.66 12.02 2 11 C1.01 10.34 0.02 9.68 -1 9 C-1 8.34 -1 7.68 -1 7 C-1.66 7 -2.32 7 -3 7 C-1.125 1.125 -1.125 1.125 0 0 Z " fill="#75A3E7" transform="translate(87,71)"/>
<path d="M0 0 C0 0.66 0 1.32 0 2 C0.99 1.67 1.98 1.34 3 1 C3.33 1.99 3.66 2.98 4 4 C3.40832031 4.02578125 2.81664062 4.0515625 2.20703125 4.078125 C-3.0359263 4.45445474 -6.23949994 5.01159084 -10 9 C-11.31165257 11.11660427 -11.31165257 11.11660427 -12 13 C-12.82041075 10.70284991 -13.1049494 9.37315341 -12.4375 7 C-9.6022792 3.05534498 -4.96124918 0 0 0 Z " fill="#3E5F8D" transform="translate(142,56)"/>
<path d="M0 0 C0.66 0.33 1.32 0.66 2 1 C0.68421053 5.73684211 0.68421053 5.73684211 -1 8 C-3.28439212 8.89125905 -5.41334731 9.2464597 -7.8359375 9.6015625 C-10.48926222 10.09008077 -12.06221329 11.14646489 -14 13 C-14.66 12.67 -15.32 12.34 -16 12 C-14.23055495 10.53998252 -12.45939429 9.08204407 -10.6875 7.625 C-9.70136719 6.81289062 -8.71523437 6.00078125 -7.69921875 5.1640625 C-5 3 -5 3 -2 1 C-1.34 1.33 -0.68 1.66 0 2 C0 1.34 0 0.68 0 0 Z " fill="#68809F" transform="translate(185,87)"/>
<path d="M0 0 C4.82306111 2.56225122 9.30718529 5.96814275 13 10 C13 10.99 13 11.98 13 13 C12.4225 12.690625 11.845 12.38125 11.25 12.0625 C9.10660587 10.93130957 9.10660587 10.93130957 7.03125 10.64453125 C4.46544592 9.83038188 3.75345674 8.82450152 2.25 6.625 C1.82203125 6.01914063 1.3940625 5.41328125 0.953125 4.7890625 C0 3 0 3 0 0 Z " fill="#1E2E45" transform="translate(120,85)"/>
<path d="M0 0 C0.8971875 0.309375 0.8971875 0.309375 1.8125 0.625 C1.19972388 3.58675123 0.55877478 5.00558783 -1.1875 7.625 C-4.8125 8.3125 -4.8125 8.3125 -8.1875 8.625 C-7.8575 6.975 -7.5275 5.325 -7.1875 3.625 C-6.5275 3.625 -5.8675 3.625 -5.1875 3.625 C-5.1875 2.965 -5.1875 2.305 -5.1875 1.625 C-2.1875 -0.375 -2.1875 -0.375 0 0 Z " fill="#B0CFF9" transform="translate(191.1875,87.375)"/>
<path d="M0 0 C5.95504316 5.80234974 5.95504316 5.80234974 6.09765625 9.6015625 C6.08605469 10.59929687 6.07445312 11.59703125 6.0625 12.625 C6.05347656 13.62789062 6.04445312 14.63078125 6.03515625 15.6640625 C6.02355469 16.43492188 6.01195312 17.20578125 6 18 C5.34 18 4.68 18 4 18 C2.41332145 13.66307863 1.58225584 9.57486732 1 5 C0.68033861 3.33065717 0.35268934 1.6626783 0 0 Z " fill="#5C85CD" transform="translate(195,63)"/>
<path d="M0 0 C1.32 0.33 2.64 0.66 4 1 C4.94528228 4.67609777 5.29655884 7.38815751 4 11 C-0.21621622 15 -0.21621622 15 -3 15 C-3 14.01 -3 13.02 -3 12 C-1.68 11.67 -0.36 11.34 1 11 C1.33 9.02 1.66 7.04 2 5 C0.02 5.33 -1.96 5.66 -4 6 C-2.68 4.02 -1.36 2.04 0 0 Z " fill="#7CA5DE" transform="translate(201,87)"/>
<path d="M0 0 C5.19210472 3.80304814 10.15609762 7.76158542 15 12 C11.38970831 12 8.44193324 11.03907418 5 10 C4.67 11.32 4.34 12.64 4 14 C3.01 14 2.02 14 1 14 C1 10 1 10 2.5 8.25 C3.2425 7.63125 3.2425 7.63125 4 7 C3.01 5.824375 3.01 5.824375 2 4.625 C0 2 0 2 0 0 Z " fill="#819BBE" transform="translate(106,80)"/>
<path d="M0 0 C0.66 0 1.32 0 2 0 C0.78747132 3.63758605 -0.60772531 4.12831024 -3.91796875 5.80078125 C-4.56378906 6.11402344 -5.20960937 6.42726563 -5.875 6.75 C-6.51308594 7.07871094 -7.15117188 7.40742187 -7.80859375 7.74609375 C-12.61997768 10.12667411 -12.61997768 10.12667411 -16 9 C-14.75 7.5 -14.75 7.5 -13 6 C-11.68 6 -10.36 6 -9 6 C-9 4.35 -9 2.7 -9 1 C-6.03 1.33 -3.06 1.66 0 2 C0 1.34 0 0.68 0 0 Z " fill="#749CDC" transform="translate(121,36)"/>
<path d="M0 0 C4.0366596 0.60182925 7.06292431 1.90261098 10.625 3.875 C11.56601563 4.38804688 12.50703125 4.90109375 13.4765625 5.4296875 C15.67624166 6.79852809 17.2863802 8.07936573 19 10 C16.25 10.25 16.25 10.25 13 10 C10.8125 8 10.8125 8 9 6 C8.01 6 7.02 6 6 6 C6 5.34 6 4.68 6 4 C4.35 3.67 2.7 3.34 1 3 C0.67 2.01 0.34 1.02 0 0 Z " fill="#5388E4" transform="translate(174,41)"/>
<path d="M0 0 C1.65 0 3.3 0 5 0 C3.515 1.98 3.515 1.98 2 4 C2.804375 4.268125 3.60875 4.53625 4.4375 4.8125 C5.283125 5.204375 6.12875 5.59625 7 6 C7.33 6.99 7.66 7.98 8 9 C10.50447516 10.21869929 10.50447516 10.21869929 13 11 C13 11.33 13 11.66 13 12 C10.36 12 7.72 12 5 12 C4.67 10.35 4.34 8.7 4 7 C3.01 7.33 2.02 7.66 1 8 C0.26919734 6.02253397 -0.39421747 4.01927511 -1 2 C-0.67 1.34 -0.34 0.68 0 0 Z " fill="#7EA7E4" transform="translate(168,96)"/>
<path d="M0 0 C5.60083202 0.92737088 9.89713326 1.76478272 14 6 C14 6.66 14 7.32 14 8 C14.66 8 15.32 8 16 8 C16 8.66 16 9.32 16 10 C10.15549417 8.46197215 4.87288478 5.5439162 0 2 C0 1.34 0 0.68 0 0 Z " fill="#A4C6F2" transform="translate(172,50)"/>
<path d="M0 0 C0.33 0.99 0.66 1.98 1 3 C0.32195312 2.89558594 -0.35609375 2.79117188 -1.0546875 2.68359375 C-5.86408155 2.26393748 -8.86504095 2.23086659 -12.95703125 5.00390625 C-15.41656734 7.25232337 -17.75134863 9.54160458 -20 12 C-20 9 -20 9 -17.953125 6.7734375 C-17.06109375 5.98195313 -16.1690625 5.19046875 -15.25 4.375 C-14.36828125 3.57835937 -13.4865625 2.78171875 -12.578125 1.9609375 C-8.1269232 -1.42467357 -5.38053574 -1.10056413 0 0 Z " fill="#0F192B" transform="translate(145,40)"/>
<path d="M0 0 C3.875 1.75 3.875 1.75 5 4 C9.14093698 4.20970559 9.14093698 4.20970559 13 3 C12.1875 4.9375 12.1875 4.9375 11 7 C10.01 7.33 9.02 7.66 8 8 C8 8.99 8 9.98 8 11 C6.25 10.9375 6.25 10.9375 4 10 C1.55272534 6.7838181 0 4.07605096 0 0 Z " fill="#030713" transform="translate(134,94)"/>
<path d="M0 0 C3.23745939 3.48113913 3.49292224 6.33304986 3.75 11 C3.86601562 12.8253125 3.86601562 12.8253125 3.984375 14.6875 C4.00233642 18.49532029 3.99697769 20.88338499 1.4375 23.75 C0.963125 24.1625 0.48875 24.575 0 25 C-0.66 24.67 -1.32 24.34 -2 24 C-1.505 22.515 -1.505 22.515 -1 21 C-0.34 21 0.32 21 1 21 C1.20772634 10.44884157 1.20772634 10.44884157 0 0 Z " fill="#1B2B42" transform="translate(160,59)"/>
<path d="M0 0 C5.02265357 1.18180084 8.0949151 2.44992282 12 6 C11.34 6.66 10.68 7.32 10 8 C7.69 7.01 5.38 6.02 3 5 C2.67 6.32 2.34 7.64 2 9 C0 2.25 0 2.25 0 0 Z " fill="#283547" transform="translate(163,41)"/>
<path d="M0 0 C0.99 0 1.98 0 3 0 C3.33 2.64 3.66 5.28 4 8 C3.34 8 2.68 8 2 8 C1.67 8.66 1.34 9.32 1 10 C0.67 9.34 0.34 8.68 0 8 C-1.98 8.33 -3.96 8.66 -6 9 C-5.38125 8.443125 -4.7625 7.88625 -4.125 7.3125 C-1.93893621 4.93354822 -1.01214301 3.03642904 0 0 Z " fill="#9BBDEA" transform="translate(192,80)"/>
<path d="M0 0 C0 1.32 0 2.64 0 4 C-0.99 4 -1.98 4 -3 4 C-3 4.99 -3 5.98 -3 7 C-4.32 7 -5.64 7 -7 7 C-7.66 5.68 -8.32 4.36 -9 3 C-8.34 3 -7.68 3 -7 3 C-6.67 2.01 -6.34 1.02 -6 0 C-3.50907189 -1.24546405 -2.58919267 -0.7767578 0 0 Z " fill="#B3D2FA" transform="translate(201,95)"/>
<path d="M0 0 C0 0.66 0 1.32 0 2 C3.465 1.505 3.465 1.505 7 1 C3.09130466 4.15702316 -0.8614939 7 -6 7 C-6 5.35 -6 3.7 -6 2 C-2.25 0 -2.25 0 0 0 Z " fill="#9CC2F4" transform="translate(183,94)"/>
<path d="M0 0 C5.66935484 5.37096774 5.66935484 5.37096774 7 9 C7 9.99 7 10.98 7 12 C5.25 11.9375 5.25 11.9375 3 11 C0.65312444 8.07602389 -1.14013944 5.36635955 -0.75 1.5625 C-0.5025 1.046875 -0.255 0.53125 0 0 Z " fill="#5172AA" transform="translate(206,56)"/>
<path d="M0 0 C1.55078125 1.14453125 1.55078125 1.14453125 3 3 C2.85546875 5.69921875 2.85546875 5.69921875 2.1875 8.6875 C1.97480469 9.68136719 1.76210937 10.67523438 1.54296875 11.69921875 C1.36378906 12.45847656 1.18460938 13.21773437 1 14 C0.01 14.33 -0.98 14.66 -2 15 C-2.05399736 13.54207116 -2.09279177 12.08357288 -2.125 10.625 C-2.15980469 9.40683594 -2.15980469 9.40683594 -2.1953125 8.1640625 C-2 6 -2 6 0 4 C0 2.68 0 1.36 0 0 Z " fill="#729FEB" transform="translate(194,63)"/>
<path d="M0 0 C0.99 0 1.98 0 3 0 C2.86312707 5.61179 0.52801899 7.97923847 -3.30859375 11.6796875 C-5 13 -5 13 -7 13 C-6.67 11.68 -6.34 10.36 -6 9 C-5.34 9 -4.68 9 -4 9 C-4 8.34 -4 7.68 -4 7 C-3.34 7 -2.68 7 -2 7 C-2 6.34 -2 5.68 -2 5 C-1.34 5 -0.68 5 0 5 C0 4.34 0 3.68 0 3 C-0.66 2.67 -1.32 2.34 -2 2 C-1.34 2 -0.68 2 0 2 C0 1.34 0 0.68 0 0 Z " fill="#68809F" transform="translate(114,45)"/>
<path d="M0 0 C2.31 0.66 4.62 1.32 7 2 C6 5 6 5 4 6 C2.28766312 5.9129796 0.57824594 5.75902838 -1.125 5.5625 C-2.03507812 5.46066406 -2.94515625 5.35882813 -3.8828125 5.25390625 C-4.58148438 5.17011719 -5.28015625 5.08632812 -6 5 C-6 4.67 -6 4.34 -6 4 C-4.35 4 -2.7 4 -1 4 C-0.67 2.68 -0.34 1.36 0 0 Z " fill="#9FC2F0" transform="translate(95,100)"/>
<path d="M0 0 C1.48034764 0.47550561 2.95925021 0.95551216 4.4375 1.4375 C5.26121094 1.70433594 6.08492187 1.97117187 6.93359375 2.24609375 C9 3 9 3 10 4 C10.33 3.34 10.66 2.68 11 2 C12.32 2.33 13.64 2.66 15 3 C13.35 4.65 11.7 6.3 10 8 C7.5625 7.1875 7.5625 7.1875 5 6 C4.67 5.01 4.34 4.02 4 3 C1.99983534 1.79117904 1.99983534 1.79117904 0 1 C0 0.67 0 0.34 0 0 Z " fill="#31476D" transform="translate(132,90)"/>
<path d="M0 0 C2.0625 1.6875 2.0625 1.6875 4 4 C3.75 6.75 3.75 6.75 3 9 C1.35 8.67 -0.3 8.34 -2 8 C-2 5.69 -2 3.38 -2 1 C-1.34 0.67 -0.68 0.34 0 0 Z " fill="#5785CF" transform="translate(141,69)"/>
<path d="M0 0 C4.67105792 1.55701931 8.08705685 4.08447373 12 7 C11.67 7.66 11.34 8.32 11 9 C8.69 8.34 6.38 7.68 4 7 C3.67 7.66 3.34 8.32 3 9 C1.76078698 6.02588876 0.69941596 3.14737182 0 0 Z " fill="#172236" transform="translate(172,56)"/>
<path d="M0 0 C0.33 0 0.66 0 1 0 C1.3125 2.8125 1.3125 2.8125 1 6 C-1.30423824 8.30423824 -2.97353962 8.97303519 -6.23046875 9.05859375 C-12.32553361 8.5912723 -12.32553361 8.5912723 -14.7734375 6.4453125 C-15.17820313 5.96835938 -15.58296875 5.49140625 -16 5 C-15.34 5 -14.68 5 -14 5 C-13.67 4.34 -13.34 3.68 -13 3 C-12.01 4.485 -12.01 4.485 -11 6 C-6.29526173 6.56480738 -6.29526173 6.56480738 -2.125 4.6875 C-0.81453877 2.88214533 -0.81453877 2.88214533 0 0 Z " fill="#74A3D6" transform="translate(150,73)"/>
<path d="M0 0 C0.33 3.3 0.66 6.6 1 10 C-3 9 -3 9 -4 8 C-4.04092937 5.66702567 -4.04241723 3.33294775 -4 1 C-2 0 -2 0 0 0 Z " fill="#AFD1EE" transform="translate(135,68)"/>
<path d="M0 0 C2.31 0.33 4.62 0.66 7 1 C7 1.66 7 2.32 7 3 C8.134375 3.12375 9.26875 3.2475 10.4375 3.375 C11.613125 3.58125 12.78875 3.7875 14 4 C14.33 4.66 14.66 5.32 15 6 C12.03 5.505 12.03 5.505 9 5 C9 5.66 9 6.32 9 7 C6.525 6.01 6.525 6.01 4 5 C4 4.34 4 3.68 4 3 C2.68 2.67 1.36 2.34 0 2 C0 1.34 0 0.68 0 0 Z " fill="#6496EB" transform="translate(166,37)"/>
<path d="M0 0 C2.70931419 0.15481795 4.46584039 0.48172081 6.4453125 2.40234375 C7.67679642 3.89771708 8.8429837 5.4462924 10 7 C8.35 7 6.7 7 5 7 C5 6.01 5 5.02 5 4 C4.01 4.33 3.02 4.66 2 5 C-1.1875 4.0625 -1.1875 4.0625 -4 3 C-3.67 2.34 -3.34 1.68 -3 1 C-2.01 1.33 -1.02 1.66 0 2 C0 1.34 0 0.68 0 0 Z " fill="#82A6E0" transform="translate(76,87)"/>
<path d="M0 0 C2 2 2 2 2.125 5.625 C2.08375 6.73875 2.0425 7.8525 2 9 C2.66 9 3.32 9 4 9 C3.67 10.65 3.34 12.3 3 14 C2.01 14.33 1.02 14.66 0 15 C-0.66 14.67 -1.32 14.34 -2 14 C-1.34 9.38 -0.68 4.76 0 0 Z M1 10 C2 12 2 12 2 12 Z " fill="#415574" transform="translate(187,72)"/>
<path d="M0 0 C0 2.66816609 -0.30935697 4.56657804 -0.9375 7.125 C-2.00588956 11.73953364 -2.55112113 16.28677189 -3 21 C-5.36281649 18.63718351 -5.29567658 18.09388178 -5.3125 14.875 C-5.1963609 9.34499192 -4.02295949 4.02295949 0 0 Z " fill="#3B5A90" transform="translate(85,62)"/>
<path d="M0 0 C0.45375 0.495 0.9075 0.99 1.375 1.5 C2.87635519 3.22609337 2.87635519 3.22609337 5 3 C5.66 2.34 6.32 1.68 7 1 C7 1.66 7 2.32 7 3 C8.32 3.33 9.64 3.66 11 4 C6.7239819 7.05429864 6.7239819 7.05429864 3.5 6.8125 C0.94514723 5.98217285 -1.53087453 5.05819663 -4 4 C-2.68 3.34 -1.36 2.68 0 2 C0 1.34 0 0.68 0 0 Z " fill="#2E446B" transform="translate(137,112)"/>
<path d="M0 0 C0.99 0.99 1.98 1.98 3 3 C1.79618552 5.49361571 0.54571278 7.68143083 -1 10 C-2.32 9.34 -3.64 8.68 -5 8 C-5 7.01 -5 6.02 -5 5 C-4.67 5.33 -4.34 5.66 -4 6 C-3.67 5.34 -3.34 4.68 -3 4 C-2.34 4 -1.68 4 -1 4 C-0.67 2.68 -0.34 1.36 0 0 Z " fill="#0C1527" transform="translate(143,101)"/>
<path d="M0 0 C0.66 0.33 1.32 0.66 2 1 C2 4.63 2 8.26 2 12 C1.34 12 0.68 12 0 12 C-0.66 14.31 -1.32 16.62 -2 19 C-3.1875 17.5 -3.1875 17.5 -4 15 C-3.43049565 12.9488945 -2.63539781 11.06462183 -1.8046875 9.10546875 C-0.64985232 6.0838369 -0.33418153 3.20814266 0 0 Z " fill="#081830" transform="translate(202,71)"/>
<path d="M0 0 C1.46067199 0.45082469 2.91848032 0.91093537 4.375 1.375 C5.18710938 1.63023438 5.99921875 1.88546875 6.8359375 2.1484375 C9 3 9 3 11 5 C9.35 4.67 7.7 4.34 6 4 C5.67 4.99 5.34 5.98 5 7 C2.525 6.01 2.525 6.01 0 5 C0 3.35 0 1.7 0 0 Z " fill="#9EB3D4" transform="translate(166,46)"/>
<path d="M0 0 C0.66 0 1.32 0 2 0 C2.054138 2.24973447 2.09285491 4.49984383 2.125 6.75 C2.14820313 8.00296875 2.17140625 9.2559375 2.1953125 10.546875 C2.01537302 13.72820492 1.68998582 15.36521896 0 18 C-0.33 18 -0.66 18 -1 18 C-1.125 12.25 -1.125 12.25 0 10 C0.06996014 8.29297265 0.08440154 6.58331997 0.0625 4.875 C0.05347656 3.96492188 0.04445312 3.05484375 0.03515625 2.1171875 C0.02355469 1.41851562 0.01195312 0.71984375 0 0 Z " fill="#263B60" transform="translate(158,66)"/>
<path d="M0 0 C1.32 0 2.64 0 4 0 C6.125 2.375 6.125 2.375 8 5 C8.66 5.66 9.32 6.32 10 7 C9.9765625 9.8203125 9.9765625 9.8203125 9.625 13.125 C9.45871094 14.76855469 9.45871094 14.76855469 9.2890625 16.4453125 C9.14597656 17.70988281 9.14597656 17.70988281 9 19 C8.67 19 8.34 19 8 19 C7.97421875 18.34773438 7.9484375 17.69546875 7.921875 17.0234375 C7.44637617 9.69643276 5.57596633 5.0183697 0 0 Z " fill="#6C8DC8" transform="translate(183,62)"/>
<path d="M0 0 C0 0.66 0 1.32 0 2 C-0.66 2 -1.32 2 -2 2 C-2 2.66 -2 3.32 -2 4 C-8.28571429 6.42857143 -8.28571429 6.42857143 -12 5 C-11.34 5 -10.68 5 -10 5 C-10 4.01 -10 3.02 -10 2 C-6.38026598 0.68373308 -3.90432869 0 0 0 Z " fill="#9DB5D5" transform="translate(114,48)"/>
<path d="M0 0 C0.33 0 0.66 0 1 0 C1.33 2.31 1.66 4.62 2 7 C2.99 7 3.98 7 5 7 C4.67 8.65 4.34 10.3 4 12 C2.35 12.33 0.7 12.66 -1 13 C-2.12758089 9.61725734 -1.81750262 8.23221777 -1.0625 4.8125 C-0.86785156 3.91144531 -0.67320312 3.01039062 -0.47265625 2.08203125 C-0.23869141 1.05142578 -0.23869141 1.05142578 0 0 Z " fill="#6C99E8" transform="translate(206,74)"/>
<path d="M0 0 C0.66 0 1.32 0 2 0 C2.33 1.32 2.66 2.64 3 4 C3.66 4 4.32 4 5 4 C5.75 6.25 5.75 6.25 6 9 C4.375 11.3125 4.375 11.3125 2 13 C-0.75 13.25 -0.75 13.25 -3 13 C-2.360625 12.79375 -1.72125 12.5875 -1.0625 12.375 C1.285734 11.12217718 1.285734 11.12217718 1.875 8.1875 C2.0063445 4.83821527 1.48399085 2.9679817 0 0 Z " fill="#4A73B2" transform="translate(144,67)"/>
<path d="M0 0 C2.3125 -0.3125 2.3125 -0.3125 5 0 C6.81883009 2.3832946 8 3.95818337 8 7 C4.84859577 6.65930765 3.39218439 6.41923159 1.1875 4.0625 C0 2 0 2 0 0 Z " fill="#B5D3F7" transform="translate(90,88)"/>
<path d="M0 0 C0.66 0.33 1.32 0.66 2 1 C2 1.99 2 2.98 2 4 C0 6 0 6 -2.5625 7 C-5.14841441 7.74870114 -5.14841441 7.74870114 -6 10 C-6.99 9.67 -7.98 9.34 -9 9 C-6.21000549 5.51250686 -3.74764169 2.49842779 0 0 Z " fill="#6D92CB" transform="translate(93,56)"/>
<path d="M0 0 C-0.66 0 -1.32 0 -2 0 C-2.20625 0.763125 -2.4125 1.52625 -2.625 2.3125 C-4.44671994 5.87313444 -6.3031495 6.64197328 -10 8 C-10.99 7.67 -11.98 7.34 -13 7 C-12.67 6.34 -12.34 5.68 -12 5 C-11.360625 4.87625 -10.72125 4.7525 -10.0625 4.625 C-9.381875 4.41875 -8.70125 4.2125 -8 4 C-7.30062468 2.68352881 -6.63270867 1.34977849 -6 0 C-3 -1 -3 -1 0 0 Z " fill="#628ED8" transform="translate(110,42)"/>
<path d="M0 0 C1.32 0.99 2.64 1.98 4 3 C2.88625 3.6496875 2.88625 3.6496875 1.75 4.3125 C-0.96668182 5.91237032 -0.96668182 5.91237032 -3.1875 7.6875 C-5 9 -5 9 -7 9 C-7.33 8.01 -7.66 7.02 -8 6 C-4.93882432 3.37613513 -4.26826873 3 0 3 C0 2.01 0 1.02 0 0 Z " fill="#80ACEE" transform="translate(110,99)"/>
<path d="M0 0 C-0.39803561 2.88575819 -0.79009069 3.82189513 -3.0625 5.75 C-3.701875 6.1625 -4.34125 6.575 -5 7 C-5 6.01 -5 5.02 -5 4 C-6.98 4.33 -8.96 4.66 -11 5 C-4.63636364 0 -4.63636364 0 0 0 Z " fill="#33496C" transform="translate(137,25)"/>
<path d="M0 0 C1.65 0.33 3.3 0.66 5 1 C1.82679218 4.53586014 -0.16743695 6.58578031 -5 7 C-5.33 6.01 -5.66 5.02 -6 4 C-4.7934375 3.566875 -4.7934375 3.566875 -3.5625 3.125 C-0.8673532 2.26737432 -0.8673532 2.26737432 0 0 Z " fill="#98BBE7" transform="translate(174,90)"/>
<path d="M0 0 C-0.30618405 3.67420866 -0.75771784 4.78135513 -3.5625 7.3125 C-4.366875 7.869375 -5.17125 8.42625 -6 9 C-6 8.01 -6 7.02 -6 6 C-6.66 5.67 -7.32 5.34 -8 5 C-2.25 0 -2.25 0 0 0 Z " fill="#172239" transform="translate(164,83)"/>
<path d="M0 0 C3.94139078 1.66751148 6.7892812 4.22710649 10 7 C9.67 7.66 9.34 8.32 9 9 C6.13275314 8.42655063 5.1385485 8.1385485 3 6 C3 5.01 3 4.02 3 3 C2.34 3 1.68 3 1 3 C0.67 2.01 0.34 1.02 0 0 Z " fill="#7CA0D8" transform="translate(185,55)"/>
<path d="M0 0 C3.61138104 -0.20063228 5.95990319 -0.02673121 9 2 C10.75 4.125 10.75 4.125 12 6 C7.43545749 5.45660208 4.0271824 4.20536179 0 2 C0 1.34 0 0.68 0 0 Z " fill="#6085C6" transform="translate(175,45)"/>
<path d="M0 0 C1.98 0 3.96 0 6 0 C4.71034824 1.37562854 3.37310707 2.70766393 2 4 C1.34 4 0.68 4 0 4 C0 4.66 0 5.32 0 6 C-1.65 5.67 -3.3 5.34 -5 5 C-4.67 4.34 -4.34 3.68 -4 3 C-3.01 3 -2.02 3 -1 3 C-0.67 2.01 -0.34 1.02 0 0 Z " fill="#6292E1" transform="translate(121,32)"/>
<path d="M0 0 C0.66 0 1.32 0 2 0 C1.67 0.99 1.34 1.98 1 3 C0.67 2.01 0.34 1.02 0 0 Z M-4 5 C-3.34 5 -2.68 5 -2 5 C-0.375 7 -0.375 7 1 9 C0.01 9 -0.98 9 -2 9 C-2 9.66 -2 10.32 -2 11 C-3.32 11 -4.64 11 -6 11 C-5.125 6.125 -5.125 6.125 -4 5 Z " fill="#6192EB" transform="translate(154,102)"/>
<path d="M0 0 C0.66 0 1.32 0 2 0 C2.99 2.64 3.98 5.28 5 8 C2.36 7.67 -0.28 7.34 -3 7 C-1.125 2.25 -1.125 2.25 0 0 Z " fill="#B1C9EB" transform="translate(101,73)"/>
<path d="M0 0 C0.66 0.33 1.32 0.66 2 1 C0.515 2.299375 0.515 2.299375 -1 3.625 C-3.50677974 6.09663797 -3.96804073 6.5845295 -4.25 10.25 C-4.1675 11.1575 -4.085 12.065 -4 13 C-4.66 13.66 -5.32 14.32 -6 15 C-6 14.01 -6 13.02 -6 12 C-6.66 12 -7.32 12 -8 12 C-6.64994369 6.32976351 -4.1842771 3.82042691 0 0 Z " fill="#132549" transform="translate(86,57)"/>
<path d="M0 0 C2.875 -0.125 2.875 -0.125 6 0 C6.66 0.66 7.32 1.32 8 2 C7.67 2.99 7.34 3.98 7 5 C5.6078125 4.7215625 5.6078125 4.7215625 4.1875 4.4375 C0.98656229 3.75876119 0.98656229 3.75876119 -2 5 C-2 4.01 -2 3.02 -2 2 C-1.34 2 -0.68 2 0 2 C0 1.34 0 0.68 0 0 Z " fill="#3A658D" transform="translate(140,61)"/>
<path d="M0 0 C0 1.32 0 2.64 0 4 C-0.66 4 -1.32 4 -2 4 C-2 3.34 -2 2.68 -2 2 C-4.64 2.99 -7.28 3.98 -10 5 C-9.01906046 2.54765115 -8.31296172 1.2190732 -6.125 -0.3125 C-3.64990694 -1.1132654 -2.41712366 -0.86325845 0 0 Z " fill="#345383" transform="translate(144,54)"/>
<path d="M0 0 C5.69139902 1.09698167 10.74567937 2.54053077 16 5 C12.49595163 6.16801612 10.58912879 5.59818813 7 5 C6.01 5.33 5.02 5.66 4 6 C4 4.68 4 3.36 4 2 C2.68 1.34 1.36 0.68 0 0 Z " fill="#3B5888" transform="translate(156,30)"/>
<path d="M0 0 C1.05960938 0.00676758 1.05960938 0.00676758 2.140625 0.01367188 C3.88545275 0.02546125 5.630237 0.04339676 7.375 0.0625 C7.375 0.3925 7.375 0.7225 7.375 1.0625 C1.765 1.7225 -3.845 2.3825 -9.625 3.0625 C-9.625 2.4025 -9.625 1.7425 -9.625 1.0625 C-6.55966836 -0.47016582 -3.35745728 -0.04026471 0 0 Z " fill="#4867A2" transform="translate(171.625,108.9375)"/>
<path d="M0 0 C0.66 0 1.32 0 2 0 C1.979375 1.216875 1.95875 2.43375 1.9375 3.6875 C1.93175884 6.91977322 2.21233685 9.84934741 3 13 C2.360625 12.195625 1.72125 11.39125 1.0625 10.5625 C-0.40603502 8.7249496 -0.40603502 8.7249496 -2 7 C-2.1875 4.5625 -2.1875 4.5625 -2 2 C-1.34 1.34 -0.68 0.68 0 0 Z " fill="#668ED5" transform="translate(84,78)"/>
<path d="M0 0 C0 0.66 0 1.32 0 2 C-0.99 2 -1.98 2 -3 2 C-2.67 3.32 -2.34 4.64 -2 6 C-4.88395737 7.44197868 -7.82430479 7.58833581 -11 8 C-8.21659292 4.18570141 -5.12174212 0 0 0 Z " fill="#38558C" transform="translate(90,45)"/>
<path d="M0 0 C3.81283223 0.52956003 6.16522647 1.36072809 9 4 C10.25 6.1875 10.25 6.1875 11 8 C7.22272911 6.18690997 3.62730178 4.0926741 0 2 C0 1.34 0 0.68 0 0 Z " fill="#1D2941" transform="translate(174,47)"/>
<path d="M0 0 C0.99 0.66 1.98 1.32 3 2 C1.57277341 3.1998278 0.13284224 4.3845576 -1.3125 5.5625 C-2.51326172 6.55443359 -2.51326172 6.55443359 -3.73828125 7.56640625 C-4.48464844 8.03949219 -5.23101562 8.51257813 -6 9 C-6.99 8.67 -7.98 8.34 -9 8 C-8.01 7.67 -7.02 7.34 -6 7 C-6 6.34 -6 5.68 -6 5 C-5.38125 4.9175 -4.7625 4.835 -4.125 4.75 C-1.81562433 4.18741541 -1.81562433 4.18741541 -0.75 1.9375 C-0.37875 0.9784375 -0.37875 0.9784375 0 0 Z " fill="#1E3C6A" transform="translate(196,89)"/>
<path d="M0 0 C1.5 1 1.5 1 3 3 C3.27345479 5.71846235 3.13491285 8.25677199 3 11 C0.9754262 9.06745228 -0.42105792 7.36841312 -2 5 C-2 4.01 -2 3.02 -2 2 C-1.34 2 -0.68 2 0 2 C0 1.34 0 0.68 0 0 Z " fill="#4D80E1" transform="translate(207,64)"/>
<path d="M0 0 C6.93 0.495 6.93 0.495 14 1 C14 1.99 14 2.98 14 4 C9.03083364 3.48594831 4.70973649 2.76615118 0 1 C0 0.67 0 0.34 0 0 Z " fill="#5A77AB" transform="translate(89,105)"/>
<path d="M0 0 C0.33 0.99 0.66 1.98 1 3 C-0.98 3.99 -0.98 3.99 -3 5 C-3.99 4.34 -4.98 3.68 -6 3 C-5.67 2.34 -5.34 1.68 -5 1 C-5.66 0.67 -6.32 0.34 -7 0 C-4.3333581 -1.33332095 -2.83319697 -0.67102033 0 0 Z " fill="#BAD4FA" transform="translate(90,97)"/>
<path d="M0 0 C-0.25 2.875 -0.25 2.875 -1 6 C-3.0625 7.375 -3.0625 7.375 -5 8 C-5.66 7.01 -6.32 6.02 -7 5 C-2.25 0 -2.25 0 0 0 Z " fill="#A0BAE0" transform="translate(186,81)"/>
<path d="M0 0 C1.0828125 0.37125 1.0828125 0.37125 2.1875 0.75 C1.5275 2.07 0.8675 3.39 0.1875 4.75 C-2.4525 4.42 -5.0925 4.09 -7.8125 3.75 C-3.50480769 -0.31153846 -3.50480769 -0.31153846 0 0 Z " fill="#1D2F4A" transform="translate(141.8125,42.25)"/>
<path d="M0 0 C0.66 0.33 1.32 0.66 2 1 C1.34 3.64 0.68 6.28 0 9 C-1.32 8.01 -2.64 7.02 -4 6 C-1.125 1.125 -1.125 1.125 0 0 Z " fill="#78A4EC" transform="translate(118,96)"/>
<path d="M0 0 C0.33 0.66 0.66 1.32 1 2 C-1 4 -3 6 -5 8 C-6.32 8 -7.64 8 -9 8 C-9 7.34 -9 6.68 -9 6 C-7.03125 4.4921875 -7.03125 4.4921875 -4.5 2.875 C-3.6646875 2.33617188 -2.829375 1.79734375 -1.96875 1.2421875 C-1.3190625 0.83226563 -0.669375 0.42234375 0 0 Z " fill="#9DB8E8" transform="translate(196,93)"/>
<path d="M0 0 C1.98 1.65 3.96 3.3 6 5 C5.67 5.66 5.34 6.32 5 7 C4.01 6.34 3.02 5.68 2 5 C1.01 5 0.02 5 -1 5 C-1 4.34 -1 3.68 -1 3 C-1.99 3 -2.98 3 -4 3 C-4 2.34 -4 1.68 -4 1 C-2.68 1.33 -1.36 1.66 0 2 C0 1.34 0 0.68 0 0 Z " fill="#5876AC" transform="translate(125,97)"/>
<path d="M0 0 C0.66 0.66 1.32 1.32 2 2 C-3.445 5.96 -3.445 5.96 -9 10 C-9.66 9.67 -10.32 9.34 -11 9 C-7.37 6.03 -3.74 3.06 0 0 Z " fill="#263C5D" transform="translate(180,90)"/>
<path d="M0 0 C0.33 0 0.66 0 1 0 C1.28875 1.051875 1.5775 2.10375 1.875 3.1875 C2.77225193 6.22818711 3.76423419 9.08712344 5 12 C3.35 11.67 1.7 11.34 0 11 C0.33 10.01 0.66 9.02 1 8 C0.01 7.01 -0.98 6.02 -2 5 C-1.34 3.35 -0.68 1.7 0 0 Z " fill="#81AAE4" transform="translate(88,74)"/>
<path d="M0 0 C0.66 0.33 1.32 0.66 2 1 C1.01 1.33 0.02 1.66 -1 2 C-1.33 3.98 -1.66 5.96 -2 8 C-2.33 7.34 -2.66 6.68 -3 6 C-5.02463255 5.34786708 -5.02463255 5.34786708 -7 5 C-2.25 1.125 -2.25 1.125 0 0 Z " fill="#1A2536" transform="translate(120,39)"/>
<path d="M0 0 C0 3 0 3 -1.625 5.625 C-4.43693229 8.43693229 -6.10240081 8.7342546 -10 9 C-10 8.01 -10 7.02 -10 6 C-8.68 6 -7.36 6 -6 6 C-4.23682295 4.7187757 -4.23682295 4.7187757 -2.75 3 C-2.22921875 2.443125 -1.7084375 1.88625 -1.171875 1.3125 C-0.78515625 0.879375 -0.3984375 0.44625 0 0 Z " fill="#0E172D" transform="translate(149,90)"/>
<path d="M0 0 C3 1 3 1 4.25 2.875 C5 5 5 5 4 8 C2.68 6.68 1.36 5.36 0 4 C-0.99 4.495 -0.99 4.495 -2 5 C-2 3.68 -2 2.36 -2 1 C-1.34 0.67 -0.68 0.34 0 0 Z " fill="#A9C8F3" transform="translate(181,66)"/>
<path d="M0 0 C0.33 0.99 0.66 1.98 1 3 C-0.65 3.33 -2.3 3.66 -4 4 C-4 4.66 -4 5.32 -4 6 C-5.65 6 -7.3 6 -9 6 C-8.34 5.67 -7.68 5.34 -7 5 C-6.67 4.01 -6.34 3.02 -6 2 C-4.02 2 -2.04 2 0 2 C0 1.34 0 0.68 0 0 Z " fill="#6798EB" transform="translate(118,103)"/>
<path d="M0 0 C1.423125 0.495 1.423125 0.495 2.875 1 C5.77062452 2.10159191 5.77062452 2.10159191 8 2 C8.33 3.65 8.66 5.3 9 7 C4.58110387 5.64978174 2.65654657 3.73884332 0 0 Z " fill="#19263B" transform="translate(127,95)"/>
<path d="M0 0 C-1 3 -1 3 -3 4 C-3.99 5.485 -3.99 5.485 -5 7 C-5.99 6.01 -6.98 5.02 -8 4 C-4.5 0 -4.5 0 0 0 Z " fill="#89AFE3" transform="translate(117,92)"/>
<path d="M0 0 C3.43950364 0.61198376 5.51564485 1.92058847 8.25 4.0625 C8.95640625 4.61035156 9.6628125 5.15820312 10.390625 5.72265625 C11.18726562 6.35494141 11.18726562 6.35494141 12 7 C11.01 7.495 11.01 7.495 10 8 C8.33055479 6.85821872 6.6645052 5.71147095 5 4.5625 C4.071875 3.92441406 3.14375 3.28632812 2.1875 2.62890625 C1.465625 2.09136719 0.74375 1.55382812 0 1 C0 0.67 0 0.34 0 0 Z " fill="#1C3354" transform="translate(98,90)"/>
<path d="M0 0 C2.3125 -0.3125 2.3125 -0.3125 5 0 C6.6875 2.4375 6.6875 2.4375 8 5 C8.66 5.33 9.32 5.66 10 6 C9.67 6.66 9.34 7.32 9 8 C7.49712782 6.85793642 5.99776716 5.71125043 4.5 4.5625 C3.6646875 3.92441406 2.829375 3.28632812 1.96875 2.62890625 C1.3190625 2.09136719 0.669375 1.55382812 0 1 C0 0.67 0 0.34 0 0 Z " fill="#90AACE" transform="translate(99,88)"/>
<path d="M0 0 C0.33 0 0.66 0 1 0 C1.33 4.62 1.66 9.24 2 14 C-1 10 -1 10 -1.07421875 7.421875 C-0.94660156 6.54015625 -0.81898437 5.6584375 -0.6875 4.75 C-0.56761719 3.85796875 -0.44773437 2.9659375 -0.32421875 2.046875 C-0.21722656 1.37140625 -0.11023438 0.6959375 0 0 Z " fill="#6C82A3" transform="translate(94,70)"/>
<path d="M0 0 C0.66 0 1.32 0 2 0 C1.5206753 4.31392226 0.2542015 6.16569547 -3 9 C-3.33 7.68 -3.66 6.36 -4 5 C-3.01 4.67 -2.02 4.34 -1 4 C-0.26676204 1.98491642 -0.26676204 1.98491642 0 0 Z " fill="#6891E1" transform="translate(75,58)"/>
<path d="M0 0 C3.98175544 2.10148204 6.35039045 4.36905358 9 8 C7.35 7.67 5.7 7.34 4 7 C4 6.34 4 5.68 4 5 C3.34 5 2.68 5 2 5 C2 4.01 2 3.02 2 2 C1.34 2 0.68 2 0 2 C0 1.34 0 0.68 0 0 Z " fill="#3C5A8E" transform="translate(197,48)"/>
<path d="M0 0 C3.24208567 0.35049575 4.61527704 0.56221181 6.8125 3.0625 C7.204375 3.701875 7.59625 4.34125 8 5 C7.01 5.33 6.02 5.66 5 6 C2.3125 4.1875 2.3125 4.1875 0 2 C0 1.34 0 0.68 0 0 Z " fill="#4474E0" transform="translate(193,52)"/>
<path d="M0 0 C0 0.99 0 1.98 0 3 C-5.75 6 -5.75 6 -8 6 C-6.98565881 3.46414701 -6.34981128 2.21863205 -4 0.75 C-2 0 -2 0 0 0 Z " fill="#638EE6" transform="translate(101,41)"/>
<path d="M0 0 C3.63 1.65 7.26 3.3 11 5 C7.37673261 6.2077558 6.35853631 5.54311128 3 4 C2.67 4.66 2.34 5.32 2 6 C1.34 5.34 0.68 4.68 0 4 C0 2.68 0 1.36 0 0 Z " fill="#223456" transform="translate(145,24)"/>
<path d="M0 0 C1.9375 0.125 1.9375 0.125 4 1 C5.25 3.5625 5.25 3.5625 6 6 C2.34683329 4.75023244 1.21934164 4.32901247 -1 1 C-0.67 0.67 -0.34 0.34 0 0 Z " fill="#6C94DE" transform="translate(132,110)"/>
<path d="M0 0 C0 1.65 0 3.3 0 5 C-1.98 5.33 -3.96 5.66 -6 6 C-6 5.01 -6 4.02 -6 3 C-2.66666667 0 -2.66666667 0 0 0 Z " fill="#8FB1E1" transform="translate(177,96)"/>
<path d="M0 0 C2.99324263 1.0975223 3.84610901 1.67682892 5.25 4.625 C5.4975 5.40875 5.745 6.1925 6 7 C1.32307692 5.52307692 1.32307692 5.52307692 -0.3125 2.875 C-0.539375 2.25625 -0.76625 1.6375 -1 1 C-0.67 0.67 -0.34 0.34 0 0 Z " fill="#1C2E45" transform="translate(184,64)"/>
<path d="M0 0 C0.99 0.33 1.98 0.66 3 1 C1.625 2.5 1.625 2.5 0 4 C-0.66 4 -1.32 4 -2 4 C-2.33 4.99 -2.66 5.98 -3 7 C-3.99 7.33 -4.98 7.66 -6 8 C-4.75237172 4.15314615 -3.6129609 1.97070595 0 0 Z " fill="#4E70A9" transform="translate(77,55)"/>
<path d="M0 0 C0.66 1.32 1.32 2.64 2 4 C0.02 5.32 -1.96 6.64 -4 8 C-4 4.09161134 -2.49432124 2.88405893 0 0 Z " fill="#6081B1" transform="translate(152,101)"/>
<path d="M0 0 C0.66 1.32 1.32 2.64 2 4 C-0.3125 5.5625 -0.3125 5.5625 -3 7 C-3.99 6.67 -4.98 6.34 -6 6 C-4.02 4.02 -2.04 2.04 0 0 Z " fill="#708AB3" transform="translate(159,94)"/>
<path d="M0 0 C2.62187494 1.04874998 3.79371361 1.64931313 5.25 4.125 C5.4975 4.74375 5.745 5.3625 6 6 C2.73045798 5.43628586 1.17424117 4.50037734 -1 2 C-0.67 1.34 -0.34 0.68 0 0 Z " fill="#2F5387" transform="translate(87,91)"/>
<path d="M0 0 C0 0.66 0 1.32 0 2 C0.66 2.33 1.32 2.66 2 3 C-0.70879335 4.35439668 -3.00933268 4.06501451 -6 4 C-5.67 3.01 -5.34 2.02 -5 1 C-3 0 -3 0 0 0 Z " fill="#73A0E0" transform="translate(100,58)"/>
<path d="M0 0 C0.66 0 1.32 0 2 0 C2 0.66 2 1.32 2 2 C2.66 2 3.32 2 4 2 C4 2.66 4 3.32 4 4 C5.65 4.33 7.3 4.66 9 5 C8.67 5.99 8.34 6.98 8 8 C1.42857143 4 1.42857143 4 0 0 Z " fill="#5D8CE3" transform="translate(197,51)"/>
<path d="M0 0 C0.33 1.32 0.66 2.64 1 4 C-2.3 4.33 -5.6 4.66 -9 5 C-4 0 -4 0 0 0 Z " fill="#839CBF" transform="translate(104,51)"/>
<path d="M0 0 C-0.33 1.32 -0.66 2.64 -1 4 C-2.32 4 -3.64 4 -5 4 C-5.33 4.66 -5.66 5.32 -6 6 C-6 5.34 -6 4.68 -6 4 C-6.66 3.67 -7.32 3.34 -8 3 C-2.25 0 -2.25 0 0 0 Z " fill="#5285E3" transform="translate(103,43)"/>
<path d="M0 0 C2.64 1.65 5.28 3.3 8 5 C7.01 5.66 6.02 6.32 5 7 C2.5 5.75 2.5 5.75 0 4 C0 2.68 0 1.36 0 0 Z " fill="#94AFD8" transform="translate(100,92)"/>
<path d="M0 0 C0.66 0.33 1.32 0.66 2 1 C2 1.33 2 1.66 2 2 C2.66 2.33 3.32 2.66 4 3 C3.67 3.66 3.34 4.32 3 5 C-0.0625 5.625 -0.0625 5.625 -3 6 C-1.125 1.125 -1.125 1.125 0 0 Z " fill="#7C99C5" transform="translate(162,91)"/>
<path d="M0 0 C1.32 0.66 2.64 1.32 4 2 C3.01 3.98 2.02 5.96 1 8 C0.34 7.34 -0.32 6.68 -1 6 C-0.625 2.875 -0.625 2.875 0 0 Z " fill="#8DB6F3" transform="translate(86,80)"/>
<path d="M0 0 C4.875 1.75 4.875 1.75 6 4 C5.67 4.33 5.34 4.66 5 5 C4.31731862 6.32520503 3.6492959 7.65812182 3 9 C1.76078698 6.02588876 0.69941596 3.14737182 0 0 Z " fill="#2A3846" transform="translate(172,56)"/>
<path d="M0 0 C0.99 0 1.98 0 3 0 C3.33 0.66 3.66 1.32 4 2 C4.99 2 5.98 2 7 2 C6.67 2.99 6.34 3.98 6 5 C3.69 4.67 1.38 4.34 -1 4 C-0.67 2.68 -0.34 1.36 0 0 Z " fill="#6693ED" transform="translate(161,102)"/>
<path d="M0 0 C2 0 2 0 3.4375 1.3125 C4.2109375 2.1478125 4.2109375 2.1478125 5 3 C5.556875 3.556875 6.11375 4.11375 6.6875 4.6875 C7.3371875 5.3371875 7.3371875 5.3371875 8 6 C4.44219804 5.39009109 1.3171411 4.4216319 -2 3 C-1.34 2.01 -0.68 1.02 0 0 Z " fill="#638BCA" transform="translate(92,95)"/>
<path d="M0 0 C0.99 0.33 1.98 0.66 3 1 C-1.625 5.875 -1.625 5.875 -5 7 C-5 6.01 -5 5.02 -5 4 C-4.0409375 3.8453125 -4.0409375 3.8453125 -3.0625 3.6875 C-2.381875 3.460625 -1.70125 3.23375 -1 3 C-0.67 2.01 -0.34 1.02 0 0 Z " fill="#62799C" transform="translate(203,95)"/>
<path d="M0 0 C1.875 0.125 1.875 0.125 4 1 C5.25 4.0625 5.25 4.0625 6 7 C3.00675737 5.9024777 2.15389099 5.32317108 0.75 2.375 C0.5025 1.59125 0.255 0.8075 0 0 Z " fill="#121B2A" transform="translate(115,82)"/>
<path d="M0 0 C0.33 0.66 0.66 1.32 1 2 C1.99 2.33 2.98 2.66 4 3 C2.7934375 3.37125 2.7934375 3.37125 1.5625 3.75 C-1.171081 4.72238859 -1.171081 4.72238859 -1.8125 7.125 C-1.874375 7.74375 -1.93625 8.3625 -2 9 C-1.855625 7.700625 -1.71125 6.40125 -1.5625 5.0625 C-1.125 1.125 -1.125 1.125 0 0 Z " fill="#88AAD6" transform="translate(132,64)"/>
<path d="M0 0 C-5.14285714 4.42857143 -5.14285714 4.42857143 -9 5 C-6.81610567 0.16423399 -5.20641855 -0.13701101 0 0 Z " fill="#A1C4F3" transform="translate(102,55)"/>
<path d="M0 0 C1.32 0.33 2.64 0.66 4 1 C0.71195019 3.91227269 -1.59885603 5.49701212 -6 6 C-5.195625 5.38125 -4.39125 4.7625 -3.5625 4.125 C-0.96125481 2.25835959 -0.96125481 2.25835959 0 0 Z " fill="#577FC8" transform="translate(94,49)"/>
<path d="M0 0 C2.5 2.3125 2.5 2.3125 5 5 C5 5.99 5 6.98 5 8 C2.5 6.25 2.5 6.25 0 4 C0 2.68 0 1.36 0 0 Z " fill="#46658E" transform="translate(131,104)"/>
<path d="M0 0 C1.98 0 3.96 0 6 0 C6.33 1.65 6.66 3.3 7 5 C4.525 4.01 4.525 4.01 2 3 C2 2.34 2 1.68 2 1 C1.34 0.67 0.68 0.34 0 0 Z " fill="#719FEF" transform="translate(166,103)"/>
<path d="M0 0 C1.98 0 3.96 0 6 0 C6 0.99 6 1.98 6 3 C6.66 3 7.32 3 8 3 C8 3.66 8 4.32 8 5 C2.25 3.375 2.25 3.375 0 0 Z " fill="#657DA0" transform="translate(81,100)"/>
<path d="M0 0 C0.99 0.66 1.98 1.32 3 2 C-3.625 5.125 -3.625 5.125 -7 4 C-4.69 2.68 -2.38 1.36 0 0 Z " fill="#7398D8" transform="translate(186,97)"/>
<path d="M0 0 C1.875 0.3125 1.875 0.3125 4 1 C4.66 1.99 5.32 2.98 6 4 C3.69 3.67 1.38 3.34 -1 3 C-0.67 2.01 -0.34 1.02 0 0 Z " fill="#A3C7F8" transform="translate(100,96)"/>
<path d="M0 0 C3.81684226 1.55500981 6.19195732 4.03595495 9 7 C5.625 6.3125 5.625 6.3125 2 5 C0.5625 2.375 0.5625 2.375 0 0 Z " fill="#505D77" transform="translate(112,86)"/>
<path d="M0 0 C0.99 0 1.98 0 3 0 C3.33 2.64 3.66 5.28 4 8 C3.67 6.68 3.34 5.36 3 4 C1.68 3.67 0.36 3.34 -1 3 C-0.67 2.01 -0.34 1.02 0 0 Z " fill="#8DB4EC" transform="translate(192,80)"/>
<path d="M0 0 C0.99 0 1.98 0 3 0 C2.67 1.98 2.34 3.96 2 6 C1.34 6 0.68 6 0 6 C0 5.01 0 4.02 0 3 C-0.66 2.67 -1.32 2.34 -2 2 C-1.34 2 -0.68 2 0 2 C0 1.34 0 0.68 0 0 Z " fill="#8795AD" transform="translate(114,45)"/>
<path d="M0 0 C0.33 0.66 0.66 1.32 1 2 C3.02463255 2.65213292 3.02463255 2.65213292 5 3 C1.535 4.485 1.535 4.485 -2 6 C-2 5.34 -2 4.68 -2 4 C-1.34 4 -0.68 4 0 4 C-0.33 3.01 -0.66 2.02 -1 1 C-0.67 0.67 -0.34 0.34 0 0 Z " fill="#6C83A4" transform="translate(193,100)"/>
<path d="M0 0 C2.46278801 2.46278801 2.99771255 4.70676982 4 8 C2.68 7.67 1.36 7.34 0 7 C0 4.69 0 2.38 0 0 Z " fill="#7097D3" transform="translate(76,80)"/>
<path d="M0 0 C2.4375 1.1875 2.4375 1.1875 5 3 C5.8125 5.6875 5.8125 5.6875 6 8 C5.67 7.34 5.34 6.68 5 6 C4.01 5.67 3.02 5.34 2 5 C2 4.01 2 3.02 2 2 C1.34 2 0.68 2 0 2 C0 1.34 0 0.68 0 0 Z " fill="#A8C8F5" transform="translate(180,73)"/>
<path d="M0 0 C0.66 1.32 1.32 2.64 2 4 C1.01 4.99 0.02 5.98 -1 7 C-1.33 5.02 -1.66 3.04 -2 1 C-1.34 0.67 -0.68 0.34 0 0 Z " fill="#5D8ADA" transform="translate(142,70)"/>
<path d="M0 0 C2.475 0.495 2.475 0.495 5 1 C5.33 1.99 5.66 2.98 6 4 C6.66 4.33 7.32 4.66 8 5 C4.75791433 4.64950425 3.38472296 4.43778819 1.1875 1.9375 C0.795625 1.298125 0.40375 0.65875 0 0 Z " fill="#081329" transform="translate(182,51)"/>
<path d="M0 0 C2.31 0.33 4.62 0.66 7 1 C7 1.66 7 2.32 7 3 C5.68 3.33 4.36 3.66 3 4 C2.01 2.68 1.02 1.36 0 0 Z " fill="#7995C1" transform="translate(168,52)"/>
<path d="M0 0 C-4.43076923 3.07692308 -4.43076923 3.07692308 -7.3125 2.6875 C-8.1478125 2.3471875 -8.1478125 2.3471875 -9 2 C-8.34 2 -7.68 2 -7 2 C-7 1.34 -7 0.68 -7 0 C-3.98968256 -0.93423645 -3.13349732 -1.04449911 0 0 Z " fill="#B0CFFA" transform="translate(111,51)"/>
<path d="M0 0 C3.68754757 0.49831724 5.60490662 1.10067643 8 4 C6.02 4 4.04 4 2 4 C1.34 2.68 0.68 1.36 0 0 Z " fill="#497BE2" transform="translate(185,47)"/>
<path d="M0 0 C2.31 0.33 4.62 0.66 7 1 C7.33 1.99 7.66 2.98 8 4 C4.31245243 3.50168276 2.39509338 2.89932357 0 0 Z " fill="#547095" transform="translate(157,37)"/>
</svg>
